<svg xmlns="http://www.w3.org/2000/svg" xmlns:xlink="http://www.w3.org/1999/xlink" width="500" zoomAndPan="magnify" viewBox="0 0 375 374.999991" height="500" preserveAspectRatio="xMidYMid meet" version="1.0"><defs><clipPath id="84ca8a17aa"><path d="M 69.75 0 L 305.25 0 C 323.75 0 341.488281 7.347656 354.570312 20.429688 C 367.652344 33.511719 375 51.25 375 69.75 L 375 305.25 C 375 323.75 367.652344 341.488281 354.570312 354.570312 C 341.488281 367.652344 323.75 375 305.25 375 L 69.75 375 C 31.226562 375 0 343.773438 0 305.25 L 0 69.75 C 0 31.226562 31.226562 0 69.75 0 Z M 69.75 0 " clip-rule="nonzero"/></clipPath></defs><g clip-path="url(#84ca8a17aa)"><rect x="-37.5" width="450" fill="#001fb6" y="-37.499999" height="449.999989" fill-opacity="1"/></g><path fill="#ffffff" d="M 319.757812 147.621094 C 319.582031 147.046875 319.355469 146.496094 319.070312 145.964844 C 318.785156 145.433594 318.453125 144.9375 318.074219 144.472656 C 317.691406 144.007812 317.269531 143.585938 316.804688 143.203125 C 316.339844 142.820312 315.84375 142.488281 315.3125 142.203125 C 314.785156 141.917969 314.230469 141.6875 313.65625 141.511719 C 313.082031 141.335938 312.496094 141.21875 311.898438 141.15625 C 311.300781 141.097656 310.699219 141.09375 310.101562 141.148438 C 309.503906 141.207031 308.917969 141.320312 308.339844 141.492188 C 307.765625 141.660156 307.210938 141.886719 306.679688 142.167969 C 306.144531 142.449219 305.644531 142.777344 305.179688 143.15625 C 304.710938 143.53125 304.285156 143.953125 303.898438 144.414062 C 303.515625 144.875 303.179688 145.371094 302.890625 145.898438 C 302.601562 146.425781 302.367188 146.976562 302.1875 147.550781 C 302.007812 148.121094 301.882812 148.707031 301.820312 149.304688 C 301.753906 149.902344 301.746094 150.5 301.796875 151.101562 C 301.851562 151.699219 301.960938 152.289062 302.125 152.863281 C 302.792969 155.097656 303.394531 157.351562 303.929688 159.617188 C 304.464844 161.886719 304.933594 164.171875 305.335938 166.464844 C 305.738281 168.761719 306.070312 171.070312 306.339844 173.386719 C 306.605469 175.699219 306.804688 178.023438 306.9375 180.351562 C 307.066406 182.675781 307.132812 185.007812 307.125 187.339844 C 307.121094 189.667969 307.046875 192 306.90625 194.324219 C 306.765625 196.652344 306.558594 198.972656 306.28125 201.289062 C 306.003906 203.601562 305.660156 205.90625 305.25 208.203125 C 304.839844 210.496094 304.359375 212.777344 303.816406 215.042969 C 303.269531 217.308594 302.660156 219.558594 301.984375 221.789062 C 301.308594 224.019531 300.566406 226.230469 299.761719 228.417969 C 298.957031 230.605469 298.089844 232.769531 297.15625 234.90625 C 296.222656 237.042969 295.230469 239.148438 294.175781 241.230469 C 293.121094 243.308594 292.007812 245.355469 290.832031 247.367188 C 289.65625 249.382812 288.425781 251.359375 287.136719 253.300781 C 285.84375 255.242188 284.5 257.144531 283.097656 259.007812 C 281.695312 260.871094 280.242188 262.691406 278.734375 264.46875 C 277.226562 266.246094 275.667969 267.980469 274.058594 269.667969 C 272.449219 271.351562 270.792969 272.992188 269.085938 274.582031 C 267.382812 276.171875 265.632812 277.710938 263.839844 279.199219 C 262.042969 280.683594 260.207031 282.121094 258.328125 283.5 C 256.449219 284.878906 254.53125 286.203125 252.574219 287.472656 C 250.621094 288.742188 248.628906 289.949219 246.601562 291.101562 C 244.574219 292.253906 242.515625 293.347656 240.425781 294.378906 C 238.335938 295.410156 236.214844 296.378906 234.070312 297.285156 C 231.921875 298.195312 229.75 299.039062 227.554688 299.816406 C 225.355469 300.597656 223.136719 301.316406 220.898438 301.964844 C 218.660156 302.617188 216.40625 303.203125 214.132812 303.722656 C 211.859375 304.238281 209.574219 304.691406 207.277344 305.078125 C 204.976562 305.464844 202.667969 305.78125 200.351562 306.03125 C 198.03125 306.28125 195.710938 306.464844 193.382812 306.578125 C 191.054688 306.695312 188.722656 306.742188 186.390625 306.71875 C 184.0625 306.699219 181.734375 306.609375 179.40625 306.449219 C 177.082031 306.292969 174.761719 306.066406 172.449219 305.773438 C 170.136719 305.480469 167.832031 305.121094 165.542969 304.695312 C 163.25 304.265625 160.972656 303.773438 158.710938 303.210938 C 156.449219 302.648438 154.203125 302.023438 151.976562 301.332031 C 149.75 300.640625 147.546875 299.882812 145.367188 299.0625 C 143.183594 298.242188 141.027344 297.355469 138.898438 296.410156 C 136.765625 295.464844 134.667969 294.453125 132.59375 293.386719 C 130.523438 292.316406 128.484375 291.1875 126.480469 289.996094 C 124.476562 288.808594 122.507812 287.5625 120.574219 286.257812 C 118.640625 284.953125 116.75 283.59375 114.894531 282.179688 C 113.042969 280.765625 111.234375 279.296875 109.464844 277.777344 C 107.699219 276.257812 105.976562 274.6875 104.300781 273.066406 C 102.625 271.445312 101 269.773438 99.421875 268.058594 C 97.84375 266.34375 96.320312 264.582031 94.84375 262.777344 C 93.367188 260.972656 91.949219 259.125 90.582031 257.234375 C 89.214844 255.347656 87.902344 253.421875 86.648438 251.457031 C 85.394531 249.492188 84.199219 247.492188 83.0625 245.457031 C 81.925781 243.421875 80.847656 241.355469 79.832031 239.257812 C 78.816406 237.15625 77.859375 235.03125 76.96875 232.878906 C 76.078125 230.726562 75.246094 228.546875 74.484375 226.34375 C 73.71875 224.144531 73.019531 221.921875 72.382812 219.675781 C 71.75 217.433594 71.179688 215.175781 70.675781 212.898438 C 70.171875 210.621094 69.738281 208.332031 69.367188 206.03125 C 69 203.730469 68.699219 201.417969 68.464844 199.097656 C 68.230469 196.78125 68.0625 194.457031 67.964844 192.125 C 67.867188 189.796875 67.835938 187.46875 67.875 185.136719 C 67.914062 182.804688 68.019531 180.476562 68.195312 178.152344 C 68.367188 175.828125 68.609375 173.511719 68.917969 171.199219 C 69.230469 168.890625 69.605469 166.589844 70.050781 164.300781 C 70.496094 162.011719 71.003906 159.738281 71.582031 157.480469 C 72.160156 155.222656 72.800781 152.980469 73.507812 150.761719 C 74.21875 148.539062 74.988281 146.339844 75.828125 144.164062 C 76.664062 141.988281 77.5625 139.839844 78.523438 137.714844 C 79.484375 135.59375 80.507812 133.5 81.59375 131.433594 C 82.679688 129.371094 83.824219 127.339844 85.027344 125.34375 C 86.230469 123.347656 87.488281 121.386719 88.808594 119.464844 C 90.125 117.542969 91.496094 115.660156 92.925781 113.816406 C 94.351562 111.972656 95.832031 110.175781 97.367188 108.417969 C 98.898438 106.660156 100.484375 104.953125 102.117188 103.289062 C 103.75 101.625 105.429688 100.011719 107.15625 98.445312 C 108.882812 96.878906 110.65625 95.367188 112.472656 93.902344 C 114.289062 92.441406 116.144531 91.035156 118.042969 89.679688 C 119.941406 88.328125 121.875 87.03125 123.851562 85.789062 C 125.824219 84.550781 127.832031 83.367188 129.875 82.246094 C 131.917969 81.125 133.992188 80.0625 136.097656 79.058594 C 138.203125 78.058594 140.335938 77.121094 142.496094 76.242188 C 144.65625 75.367188 146.839844 74.550781 149.046875 73.804688 C 151.253906 73.054688 153.484375 72.371094 155.730469 71.75 C 157.976562 71.132812 160.242188 70.578125 162.519531 70.09375 C 164.800781 69.605469 167.09375 69.1875 169.398438 68.835938 C 171.703125 68.480469 174.015625 68.195312 176.335938 67.980469 C 178.65625 67.761719 180.980469 67.613281 183.3125 67.53125 C 185.640625 67.449219 187.972656 67.4375 190.300781 67.492188 C 192.632812 67.546875 194.960938 67.667969 197.285156 67.859375 C 199.605469 68.050781 201.921875 68.308594 204.230469 68.632812 C 206.539062 68.960938 208.835938 69.355469 211.121094 69.8125 C 213.40625 70.273438 215.675781 70.800781 217.929688 71.394531 C 220.183594 71.988281 222.421875 72.644531 224.636719 73.371094 C 226.851562 74.09375 229.046875 74.882812 231.214844 75.734375 C 233.386719 76.585938 235.527344 77.5 237.644531 78.476562 C 239.761719 79.453125 241.847656 80.492188 243.902344 81.59375 C 245.960938 82.691406 247.980469 83.851562 249.96875 85.066406 C 251.957031 86.285156 253.910156 87.558594 255.820312 88.890625 C 256.316406 89.234375 256.84375 89.527344 257.394531 89.769531 C 257.949219 90.011719 258.519531 90.199219 259.109375 90.328125 C 259.699219 90.457031 260.296875 90.527344 260.902344 90.539062 C 261.503906 90.550781 262.101562 90.503906 262.699219 90.398438 C 263.292969 90.289062 263.871094 90.128906 264.433594 89.90625 C 264.996094 89.6875 265.53125 89.414062 266.039062 89.089844 C 266.546875 88.761719 267.019531 88.390625 267.453125 87.972656 C 267.890625 87.554688 268.28125 87.097656 268.625 86.601562 C 268.972656 86.105469 269.265625 85.582031 269.507812 85.027344 C 269.75 84.476562 269.933594 83.902344 270.066406 83.3125 C 270.195312 82.722656 270.265625 82.128906 270.277344 81.523438 C 270.289062 80.921875 270.242188 80.320312 270.136719 79.726562 C 270.03125 79.132812 269.867188 78.554688 269.648438 77.992188 C 269.429688 77.429688 269.15625 76.894531 268.832031 76.382812 C 268.503906 75.875 268.132812 75.402344 267.714844 74.96875 C 267.296875 74.53125 266.839844 74.140625 266.34375 73.796875 C 264.140625 72.265625 261.898438 70.800781 259.609375 69.402344 C 257.320312 68.003906 254.992188 66.671875 252.628906 65.410156 C 250.261719 64.144531 247.859375 62.953125 245.425781 61.832031 C 242.988281 60.707031 240.523438 59.65625 238.023438 58.679688 C 235.527344 57.699219 233.003906 56.796875 230.453125 55.964844 C 227.90625 55.132812 225.332031 54.378906 222.738281 53.695312 C 220.144531 53.015625 217.53125 52.410156 214.902344 51.882812 C 212.273438 51.355469 209.628906 50.902344 206.976562 50.53125 C 204.320312 50.15625 201.65625 49.859375 198.980469 49.644531 C 196.308594 49.425781 193.632812 49.285156 190.949219 49.222656 C 188.269531 49.160156 185.585938 49.179688 182.90625 49.273438 C 180.226562 49.367188 177.550781 49.542969 174.882812 49.792969 C 172.210938 50.046875 169.550781 50.375 166.898438 50.78125 C 164.25 51.1875 161.613281 51.671875 158.988281 52.234375 C 156.367188 52.792969 153.761719 53.433594 151.175781 54.144531 C 148.589844 54.859375 146.03125 55.644531 143.488281 56.507812 C 140.949219 57.371094 138.4375 58.308594 135.953125 59.320312 C 133.46875 60.328125 131.015625 61.410156 128.59375 62.5625 C 126.171875 63.714844 123.789062 64.9375 121.4375 66.230469 C 119.085938 67.523438 116.777344 68.882812 114.507812 70.3125 C 112.234375 71.738281 110.007812 73.230469 107.824219 74.789062 C 105.644531 76.347656 103.507812 77.96875 101.417969 79.648438 C 99.328125 81.332031 97.292969 83.074219 95.304688 84.875 C 93.316406 86.675781 91.386719 88.535156 89.507812 90.449219 C 87.628906 92.363281 85.808594 94.332031 84.046875 96.355469 C 82.28125 98.375 80.578125 100.445312 78.9375 102.566406 C 77.296875 104.6875 75.714844 106.851562 74.199219 109.066406 C 72.683594 111.277344 71.234375 113.535156 69.851562 115.832031 C 68.46875 118.128906 67.152344 120.464844 65.90625 122.839844 C 64.65625 125.210938 63.480469 127.621094 62.375 130.066406 C 61.269531 132.507812 60.234375 134.980469 59.269531 137.484375 C 58.308594 139.988281 57.421875 142.515625 56.605469 145.074219 C 55.792969 147.628906 55.054688 150.207031 54.390625 152.804688 C 53.726562 155.402344 53.140625 158.019531 52.628906 160.652344 C 52.117188 163.285156 51.683594 165.929688 51.328125 168.589844 C 50.972656 171.246094 50.695312 173.914062 50.496094 176.585938 C 50.292969 179.261719 50.171875 181.941406 50.128906 184.621094 C 50.085938 187.304688 50.121094 189.984375 50.230469 192.664062 C 50.34375 195.34375 50.535156 198.015625 50.804688 200.6875 C 51.074219 203.355469 51.421875 206.011719 51.847656 208.660156 C 52.269531 211.308594 52.773438 213.941406 53.351562 216.5625 C 53.929688 219.179688 54.582031 221.78125 55.3125 224.359375 C 56.042969 226.941406 56.847656 229.5 57.730469 232.03125 C 58.609375 234.566406 59.5625 237.070312 60.585938 239.550781 C 61.613281 242.027344 62.710938 244.472656 63.882812 246.886719 C 65.050781 249.300781 66.289062 251.679688 67.597656 254.019531 C 68.90625 256.359375 70.28125 258.664062 71.722656 260.921875 C 73.164062 263.183594 74.671875 265.402344 76.246094 267.574219 C 77.816406 269.746094 79.453125 271.871094 81.148438 273.949219 C 82.84375 276.027344 84.597656 278.054688 86.414062 280.027344 C 88.230469 282.003906 90.101562 283.921875 92.027344 285.789062 C 93.953125 287.652344 95.933594 289.460938 97.964844 291.210938 C 100 292.960938 102.082031 294.648438 104.210938 296.277344 C 106.34375 297.90625 108.519531 299.46875 110.742188 300.972656 C 112.964844 302.472656 115.230469 303.90625 117.535156 305.277344 C 119.84375 306.644531 122.1875 307.945312 124.570312 309.175781 C 126.953125 310.40625 129.371094 311.566406 131.820312 312.660156 C 134.269531 313.75 136.75 314.765625 139.261719 315.710938 C 141.769531 316.65625 144.304688 317.527344 146.867188 318.324219 C 149.425781 319.121094 152.007812 319.84375 154.613281 320.492188 C 157.214844 321.136719 159.835938 321.707031 162.472656 322.199219 C 165.105469 322.695312 167.753906 323.109375 170.417969 323.449219 C 173.078125 323.785156 175.746094 324.046875 178.421875 324.230469 C 181.097656 324.410156 183.777344 324.515625 186.457031 324.542969 C 189.140625 324.566406 191.820312 324.515625 194.5 324.386719 C 197.175781 324.253906 199.851562 324.046875 202.515625 323.757812 C 205.183594 323.472656 207.839844 323.109375 210.484375 322.664062 C 213.128906 322.222656 215.761719 321.703125 218.375 321.109375 C 220.988281 320.511719 223.585938 319.839844 226.160156 319.09375 C 228.738281 318.347656 231.289062 317.523438 233.816406 316.628906 C 236.34375 315.730469 238.84375 314.761719 241.316406 313.71875 C 243.785156 312.675781 246.222656 311.5625 248.628906 310.378906 C 251.035156 309.191406 253.40625 307.9375 255.738281 306.613281 C 258.070312 305.289062 260.363281 303.898438 262.613281 302.441406 C 264.867188 300.984375 267.074219 299.460938 269.234375 297.875 C 271.398438 296.289062 273.511719 294.640625 275.578125 292.929688 C 277.644531 291.222656 279.65625 289.453125 281.621094 287.625 C 283.582031 285.796875 285.492188 283.914062 287.34375 281.972656 C 289.195312 280.035156 290.992188 278.042969 292.726562 276 C 294.464844 273.953125 296.136719 271.863281 297.753906 269.71875 C 299.367188 267.578125 300.917969 265.390625 302.402344 263.15625 C 303.890625 260.925781 305.308594 258.652344 306.660156 256.335938 C 308.015625 254.019531 309.300781 251.667969 310.515625 249.277344 C 311.730469 246.886719 312.875 244.460938 313.949219 242.003906 C 315.023438 239.546875 316.023438 237.058594 316.953125 234.542969 C 317.882812 232.027344 318.738281 229.484375 319.515625 226.917969 C 320.296875 224.355469 321.003906 221.765625 321.632812 219.160156 C 322.261719 216.554688 322.8125 213.929688 323.289062 211.289062 C 323.765625 208.652344 324.164062 206 324.484375 203.335938 C 324.804688 200.675781 325.046875 198.003906 325.210938 195.328125 C 325.375 192.648438 325.460938 189.96875 325.472656 187.289062 C 325.480469 184.605469 325.410156 181.925781 325.261719 179.25 C 325.113281 176.570312 324.886719 173.898438 324.582031 171.234375 C 324.277344 168.570312 323.894531 165.917969 323.433594 163.273438 C 322.976562 160.632812 322.4375 158.003906 321.824219 155.394531 C 321.210938 152.785156 320.523438 150.191406 319.757812 147.621094 Z M 319.757812 147.621094 " fill-opacity="1" fill-rule="nonzero"/><path fill="#ffffff" d="M 129.613281 180.535156 C 129.183594 180.117188 128.714844 179.75 128.214844 179.425781 C 127.714844 179.101562 127.183594 178.828125 126.628906 178.605469 C 126.074219 178.386719 125.503906 178.21875 124.917969 178.109375 C 124.332031 178 123.738281 177.945312 123.140625 177.953125 C 122.542969 177.957031 121.953125 178.019531 121.367188 178.140625 C 120.78125 178.261719 120.214844 178.4375 119.664062 178.667969 C 119.113281 178.898438 118.589844 179.179688 118.09375 179.511719 C 117.597656 179.84375 117.140625 180.222656 116.71875 180.644531 C 116.292969 181.066406 115.917969 181.527344 115.585938 182.023438 C 115.25 182.519531 114.96875 183.042969 114.738281 183.59375 C 114.507812 184.144531 114.332031 184.710938 114.210938 185.296875 C 114.089844 185.882812 114.027344 186.472656 114.023438 187.070312 C 114.019531 187.667969 114.070312 188.257812 114.179688 188.847656 C 114.289062 189.433594 114.457031 190.003906 114.679688 190.558594 C 114.898438 191.113281 115.171875 191.640625 115.496094 192.144531 C 115.820312 192.644531 116.191406 193.109375 116.605469 193.539062 L 162.597656 239.53125 C 163.023438 239.957031 163.488281 240.339844 163.992188 240.675781 C 164.492188 241.011719 165.023438 241.292969 165.582031 241.523438 C 166.136719 241.757812 166.714844 241.929688 167.304688 242.046875 C 167.898438 242.164062 168.496094 242.226562 169.101562 242.226562 C 169.703125 242.226562 170.300781 242.164062 170.894531 242.046875 C 171.488281 241.929688 172.0625 241.757812 172.621094 241.523438 C 173.175781 241.292969 173.707031 241.011719 174.210938 240.675781 C 174.710938 240.339844 175.175781 239.957031 175.601562 239.53125 L 299.78125 115.355469 C 300.195312 114.925781 300.566406 114.457031 300.890625 113.957031 C 301.214844 113.457031 301.488281 112.925781 301.707031 112.371094 C 301.929688 111.816406 302.09375 111.246094 302.203125 110.660156 C 302.316406 110.074219 302.367188 109.480469 302.363281 108.882812 C 302.355469 108.285156 302.292969 107.695312 302.175781 107.109375 C 302.054688 106.527344 301.878906 105.957031 301.648438 105.40625 C 301.417969 104.855469 301.132812 104.332031 300.800781 103.835938 C 300.46875 103.339844 300.089844 102.882812 299.667969 102.460938 C 299.246094 102.039062 298.789062 101.660156 298.292969 101.328125 C 297.796875 100.996094 297.273438 100.710938 296.722656 100.480469 C 296.171875 100.25 295.601562 100.074219 295.019531 99.953125 C 294.433594 99.835938 293.839844 99.769531 293.246094 99.765625 C 292.648438 99.761719 292.054688 99.8125 291.46875 99.921875 C 290.882812 100.035156 290.308594 100.199219 289.753906 100.421875 C 289.199219 100.640625 288.671875 100.914062 288.171875 101.238281 C 287.667969 101.5625 287.203125 101.933594 286.773438 102.347656 L 169.101562 220.023438 Z M 129.613281 180.535156 " fill-opacity="1" fill-rule="nonzero"/></svg>