<svg xmlns="http://www.w3.org/2000/svg" xmlns:xlink="http://www.w3.org/1999/xlink" width="500" zoomAndPan="magnify" viewBox="0 0 375 374.999991" height="500" preserveAspectRatio="xMidYMid meet" version="1.0"><defs><g/><clipPath id="9068575bfa"><path d="M 0 21.796875 L 375 21.796875 L 375 353.296875 L 0 353.296875 Z M 0 21.796875 " clip-rule="nonzero"/></clipPath></defs><g clip-path="url(#9068575bfa)"><path fill="#000000" d="M 374.90625 262.015625 L 374.90625 50.589844 C 374.90625 49.644531 374.859375 48.707031 374.765625 47.765625 C 374.671875 46.828125 374.535156 45.898438 374.351562 44.972656 C 374.167969 44.046875 373.9375 43.132812 373.664062 42.230469 C 373.390625 41.328125 373.074219 40.441406 372.714844 39.570312 C 372.351562 38.699219 371.949219 37.847656 371.507812 37.015625 C 371.0625 36.183594 370.578125 35.378906 370.054688 34.59375 C 369.53125 33.808594 368.96875 33.050781 368.371094 32.324219 C 367.773438 31.59375 367.140625 30.898438 366.472656 30.230469 C 365.808594 29.5625 365.109375 28.929688 364.382812 28.332031 C 363.652344 27.734375 362.894531 27.171875 362.113281 26.648438 C 361.328125 26.125 360.519531 25.640625 359.6875 25.195312 C 358.859375 24.753906 358.007812 24.347656 357.136719 23.988281 C 356.265625 23.628906 355.378906 23.308594 354.476562 23.035156 C 353.574219 22.761719 352.660156 22.535156 351.734375 22.351562 C 350.8125 22.167969 349.878906 22.027344 348.941406 21.933594 C 348.003906 21.84375 347.0625 21.796875 346.121094 21.796875 L 28.878906 21.796875 C 27.9375 21.796875 26.996094 21.84375 26.058594 21.933594 C 25.121094 22.027344 24.1875 22.167969 23.265625 22.351562 C 22.339844 22.535156 21.425781 22.761719 20.523438 23.035156 C 19.621094 23.308594 18.734375 23.628906 17.863281 23.988281 C 16.992188 24.347656 16.140625 24.753906 15.3125 25.195312 C 14.480469 25.640625 13.671875 26.125 12.886719 26.648438 C 12.105469 27.171875 11.347656 27.734375 10.617188 28.332031 C 9.890625 28.929688 9.191406 29.5625 8.527344 30.230469 C 7.859375 30.898438 7.226562 31.59375 6.628906 32.324219 C 6.03125 33.050781 5.46875 33.808594 4.945312 34.59375 C 4.421875 35.378906 3.9375 36.183594 3.496094 37.015625 C 3.050781 37.847656 2.648438 38.699219 2.285156 39.570312 C 1.925781 40.441406 1.609375 41.328125 1.335938 42.230469 C 1.0625 43.132812 0.832031 44.046875 0.648438 44.972656 C 0.464844 45.898438 0.328125 46.828125 0.234375 47.765625 C 0.140625 48.707031 0.09375 49.644531 0.09375 50.589844 L 0.09375 262.015625 C 0.09375 262.957031 0.140625 263.898438 0.234375 264.835938 C 0.328125 265.773438 0.464844 266.707031 0.648438 267.632812 C 0.832031 268.554688 1.0625 269.46875 1.335938 270.371094 C 1.609375 271.273438 1.925781 272.160156 2.285156 273.03125 C 2.648438 273.902344 3.050781 274.753906 3.496094 275.585938 C 3.9375 276.417969 4.421875 277.226562 4.945312 278.011719 C 5.46875 278.792969 6.03125 279.550781 6.628906 280.28125 C 7.226562 281.007812 7.859375 281.707031 8.527344 282.375 C 9.191406 283.039062 9.890625 283.671875 10.617188 284.269531 C 11.347656 284.871094 12.105469 285.429688 12.886719 285.953125 C 13.671875 286.476562 14.480469 286.960938 15.3125 287.40625 C 16.140625 287.851562 16.992188 288.253906 17.863281 288.613281 C 18.734375 288.976562 19.621094 289.292969 20.523438 289.566406 C 21.425781 289.839844 22.339844 290.070312 23.265625 290.253906 C 24.1875 290.4375 25.121094 290.574219 26.058594 290.667969 C 26.996094 290.761719 27.9375 290.808594 28.878906 290.808594 L 148.226562 290.808594 L 148.226562 307.46875 C 148.226562 308.230469 148.191406 308.988281 148.117188 309.746094 C 148.042969 310.503906 147.929688 311.253906 147.78125 312 C 147.632812 312.746094 147.449219 313.484375 147.226562 314.210938 C 147.007812 314.941406 146.75 315.65625 146.460938 316.359375 C 146.167969 317.0625 145.84375 317.75 145.484375 318.421875 C 145.125 319.09375 144.734375 319.742188 144.3125 320.375 C 143.890625 321.007812 143.4375 321.621094 142.957031 322.207031 C 142.472656 322.796875 141.960938 323.359375 141.425781 323.898438 C 140.886719 324.433594 140.324219 324.945312 139.734375 325.429688 C 139.148438 325.910156 138.535156 326.363281 137.90625 326.785156 C 137.273438 327.210938 136.621094 327.601562 135.949219 327.960938 C 135.277344 328.316406 134.589844 328.644531 133.886719 328.933594 C 133.1875 329.226562 132.46875 329.480469 131.742188 329.703125 C 131.015625 329.921875 130.277344 330.109375 129.53125 330.257812 C 128.785156 330.40625 128.035156 330.515625 127.277344 330.589844 C 126.519531 330.664062 125.761719 330.703125 125 330.703125 L 99.007812 330.703125 C 98.265625 330.703125 97.527344 330.738281 96.792969 330.8125 C 96.054688 330.882812 95.324219 330.992188 94.601562 331.136719 C 93.875 331.28125 93.15625 331.460938 92.449219 331.675781 C 91.742188 331.890625 91.046875 332.140625 90.363281 332.421875 C 89.679688 332.707031 89.011719 333.019531 88.359375 333.371094 C 87.707031 333.71875 87.074219 334.097656 86.460938 334.511719 C 85.84375 334.921875 85.25 335.359375 84.679688 335.832031 C 84.105469 336.300781 83.558594 336.796875 83.035156 337.320312 C 82.511719 337.84375 82.015625 338.390625 81.546875 338.960938 C 81.078125 339.535156 80.640625 340.128906 80.226562 340.742188 C 79.816406 341.359375 79.4375 341.992188 79.089844 342.644531 C 78.738281 343.296875 78.425781 343.964844 78.140625 344.648438 C 77.859375 345.332031 77.609375 346.027344 77.394531 346.734375 C 77.179688 347.445312 77 348.160156 76.855469 348.886719 C 76.710938 349.613281 76.601562 350.34375 76.53125 351.078125 C 76.457031 351.816406 76.421875 352.554688 76.421875 353.292969 L 298.582031 353.292969 C 298.582031 352.554688 298.546875 351.816406 298.472656 351.078125 C 298.398438 350.34375 298.292969 349.613281 298.148438 348.886719 C 298.003906 348.160156 297.824219 347.445312 297.609375 346.734375 C 297.394531 346.027344 297.144531 345.332031 296.863281 344.648438 C 296.578125 343.964844 296.261719 343.296875 295.914062 342.644531 C 295.566406 341.992188 295.1875 341.359375 294.773438 340.742188 C 294.363281 340.128906 293.925781 339.535156 293.453125 338.960938 C 292.984375 338.390625 292.488281 337.84375 291.964844 337.320312 C 291.445312 336.796875 290.894531 336.300781 290.324219 335.832031 C 289.753906 335.359375 289.160156 334.921875 288.542969 334.507812 C 287.929688 334.097656 287.296875 333.71875 286.644531 333.371094 C 285.992188 333.019531 285.324219 332.707031 284.640625 332.421875 C 283.957031 332.140625 283.261719 331.890625 282.554688 331.675781 C 281.84375 331.460938 281.128906 331.28125 280.402344 331.136719 C 279.675781 330.992188 278.945312 330.882812 278.210938 330.8125 C 277.476562 330.738281 276.738281 330.703125 275.996094 330.703125 L 250 330.703125 C 249.238281 330.703125 248.480469 330.664062 247.722656 330.589844 C 246.964844 330.515625 246.214844 330.40625 245.46875 330.257812 C 244.722656 330.109375 243.984375 329.921875 243.257812 329.703125 C 242.53125 329.480469 241.8125 329.226562 241.113281 328.933594 C 240.410156 328.644531 239.722656 328.316406 239.050781 327.960938 C 238.378906 327.601562 237.726562 327.210938 237.09375 326.785156 C 236.464844 326.363281 235.851562 325.910156 235.265625 325.429688 C 234.675781 324.945312 234.113281 324.433594 233.574219 323.898438 C 233.039062 323.359375 232.527344 322.796875 232.042969 322.207031 C 231.5625 321.621094 231.109375 321.007812 230.6875 320.375 C 230.265625 319.742188 229.875 319.09375 229.515625 318.421875 C 229.15625 317.75 228.832031 317.0625 228.539062 316.359375 C 228.25 315.65625 227.992188 314.941406 227.773438 314.210938 C 227.550781 313.484375 227.367188 312.746094 227.21875 312 C 227.070312 311.253906 226.957031 310.503906 226.882812 309.746094 C 226.808594 308.988281 226.773438 308.230469 226.773438 307.46875 L 226.773438 290.808594 L 346.121094 290.808594 C 347.0625 290.808594 348.003906 290.761719 348.941406 290.667969 C 349.878906 290.574219 350.8125 290.4375 351.734375 290.253906 C 352.660156 290.070312 353.574219 289.839844 354.476562 289.566406 C 355.378906 289.292969 356.265625 288.976562 357.136719 288.613281 C 358.007812 288.253906 358.859375 287.851562 359.6875 287.40625 C 360.519531 286.960938 361.328125 286.476562 362.113281 285.953125 C 362.894531 285.429688 363.652344 284.871094 364.378906 284.269531 C 365.109375 283.671875 365.808594 283.039062 366.472656 282.375 C 367.140625 281.707031 367.773438 281.007812 368.371094 280.28125 C 368.96875 279.550781 369.53125 278.792969 370.054688 278.011719 C 370.578125 277.226562 371.0625 276.417969 371.503906 275.585938 C 371.949219 274.753906 372.351562 273.902344 372.714844 273.03125 C 373.074219 272.160156 373.390625 271.273438 373.664062 270.371094 C 373.9375 269.46875 374.167969 268.554688 374.351562 267.632812 C 374.535156 266.707031 374.671875 265.773438 374.765625 264.835938 C 374.859375 263.898438 374.90625 262.957031 374.90625 262.015625 Z M 17.664062 251.386719 L 17.664062 51.84375 C 17.664062 51.046875 17.742188 50.261719 17.898438 49.480469 C 18.050781 48.703125 18.28125 47.945312 18.585938 47.210938 C 18.890625 46.476562 19.261719 45.78125 19.703125 45.121094 C 20.144531 44.457031 20.648438 43.847656 21.207031 43.285156 C 21.769531 42.722656 22.382812 42.222656 23.042969 41.78125 C 23.703125 41.339844 24.398438 40.964844 25.132812 40.664062 C 25.867188 40.359375 26.625 40.128906 27.402344 39.972656 C 28.183594 39.820312 28.96875 39.742188 29.765625 39.742188 L 345.234375 39.742188 C 346.03125 39.742188 346.816406 39.820312 347.597656 39.972656 C 348.375 40.128906 349.132812 40.359375 349.867188 40.664062 C 350.601562 40.964844 351.296875 41.339844 351.957031 41.78125 C 352.617188 42.222656 353.230469 42.722656 353.792969 43.285156 C 354.351562 43.847656 354.855469 44.457031 355.296875 45.121094 C 355.738281 45.78125 356.109375 46.476562 356.414062 47.210938 C 356.71875 47.945312 356.949219 48.703125 357.101562 49.480469 C 357.257812 50.261719 357.335938 51.046875 357.335938 51.84375 L 357.335938 251.386719 C 357.335938 252.183594 357.257812 252.96875 357.101562 253.75 C 356.949219 254.527344 356.71875 255.285156 356.414062 256.019531 C 356.109375 256.753906 355.738281 257.449219 355.296875 258.113281 C 354.855469 258.773438 354.351562 259.382812 353.792969 259.945312 C 353.230469 260.507812 352.617188 261.007812 351.957031 261.449219 C 351.296875 261.890625 350.601562 262.265625 349.867188 262.570312 C 349.132812 262.871094 348.375 263.101562 347.597656 263.257812 C 346.816406 263.410156 346.03125 263.488281 345.234375 263.488281 L 29.765625 263.488281 C 28.96875 263.488281 28.183594 263.410156 27.402344 263.257812 C 26.625 263.101562 25.867188 262.871094 25.132812 262.570312 C 24.398438 262.265625 23.703125 261.890625 23.042969 261.449219 C 22.382812 261.007812 21.769531 260.507812 21.207031 259.945312 C 20.648438 259.382812 20.144531 258.773438 19.703125 258.113281 C 19.261719 257.449219 18.890625 256.753906 18.585938 256.019531 C 18.28125 255.285156 18.050781 254.527344 17.898438 253.75 C 17.742188 252.96875 17.664062 252.183594 17.664062 251.386719 Z M 17.664062 251.386719 " fill-opacity="1" fill-rule="nonzero"/></g><g fill="#000000" fill-opacity="1"><g transform="translate(215.854999, 298.816034)"><g><path d="M 1.1875 -0.828125 C 1.1875 -1.179688 1.265625 -1.445312 1.421875 -1.625 C 1.585938 -1.800781 1.816406 -1.890625 2.109375 -1.890625 C 2.410156 -1.890625 2.644531 -1.800781 2.8125 -1.625 C 2.988281 -1.445312 3.078125 -1.179688 3.078125 -0.828125 C 3.078125 -0.492188 2.988281 -0.234375 2.8125 -0.046875 C 2.644531 0.140625 2.410156 0.234375 2.109375 0.234375 C 1.847656 0.234375 1.628906 0.148438 1.453125 -0.015625 C 1.273438 -0.179688 1.1875 -0.453125 1.1875 -0.828125 Z M 1.1875 -0.828125 "/></g></g></g></svg>