<svg xmlns="http://www.w3.org/2000/svg" xmlns:xlink="http://www.w3.org/1999/xlink" width="2200" zoomAndPan="magnify" viewBox="0 0 1650 472.499986" height="630" preserveAspectRatio="xMidYMid meet" version="1.0"><defs><g/><clipPath id="6bbfec90bb"><path d="M 330 84 L 506.585938 84 L 506.585938 444 L 330 444 Z M 330 84 " clip-rule="nonzero"/></clipPath><clipPath id="783c343993"><path d="M 92 26.671875 L 421 26.671875 L 421 215 L 92 215 Z M 92 26.671875 " clip-rule="nonzero"/></clipPath></defs><g fill="#ffffff" fill-opacity="1"><g transform="translate(580.356337, 256.369787)"><g><path d="M 122.484375 0 L 89.890625 0 L 37.296875 -91.46875 L 36.546875 -91.46875 C 37.597656 -75.3125 38.125 -63.789062 38.125 -56.90625 L 38.125 0 L 15.21875 0 L 15.21875 -120.90625 L 47.546875 -120.90625 L 100.0625 -30.359375 L 100.65625 -30.359375 C 99.820312 -46.066406 99.40625 -57.175781 99.40625 -63.6875 L 99.40625 -120.90625 L 122.484375 -120.90625 Z M 122.484375 0 "/></g></g></g><g fill="#ffffff" fill-opacity="1"><g transform="translate(718.054306, 256.369787)"><g><path d="M 84.859375 0 L 15.21875 0 L 15.21875 -120.90625 L 84.859375 -120.90625 L 84.859375 -99.90625 L 40.859375 -99.90625 L 40.859375 -73.359375 L 81.796875 -73.359375 L 81.796875 -52.34375 L 40.859375 -52.34375 L 40.859375 -21.171875 L 84.859375 -21.171875 Z M 84.859375 0 "/></g></g></g><g fill="#ffffff" fill-opacity="1"><g transform="translate(812.912912, 256.369787)"><g><path d="M 112.96875 0 L 83.6875 0 L 55.578125 -45.734375 L 27.453125 0 L 0 0 L 40.109375 -62.359375 L 2.5625 -120.90625 L 30.84375 -120.90625 L 56.90625 -77.40625 L 82.453125 -120.90625 L 110.078125 -120.90625 L 72.109375 -60.953125 Z M 112.96875 0 "/></g></g></g><g fill="#ffffff" fill-opacity="1"><g transform="translate(925.883119, 256.369787)"><g><path d="M 61.859375 0 L 36.21875 0 L 36.21875 -99.578125 L 3.390625 -99.578125 L 3.390625 -120.90625 L 94.6875 -120.90625 L 94.6875 -99.578125 L 61.859375 -99.578125 Z M 61.859375 0 "/></g></g></g><g fill="#ffffff" fill-opacity="1"><g transform="translate(1023.967061, 256.369787)"><g/></g></g><g fill="#ffffff" fill-opacity="1"><g transform="translate(1067.964243, 256.369787)"><g><path d="M 66.578125 -101.3125 C 56.929688 -101.3125 49.457031 -97.6875 44.15625 -90.4375 C 38.863281 -83.1875 36.21875 -73.082031 36.21875 -60.125 C 36.21875 -33.164062 46.335938 -19.6875 66.578125 -19.6875 C 75.066406 -19.6875 85.347656 -21.804688 97.421875 -26.046875 L 97.421875 -4.546875 C 87.492188 -0.410156 76.410156 1.65625 64.171875 1.65625 C 46.585938 1.65625 33.132812 -3.675781 23.8125 -14.34375 C 14.5 -25.019531 9.84375 -40.335938 9.84375 -60.296875 C 9.84375 -72.859375 12.128906 -83.867188 16.703125 -93.328125 C 21.273438 -102.785156 27.847656 -110.035156 36.421875 -115.078125 C 45.003906 -120.117188 55.054688 -122.640625 66.578125 -122.640625 C 78.316406 -122.640625 90.113281 -119.800781 101.96875 -114.125 L 93.703125 -93.28125 C 89.179688 -95.4375 84.628906 -97.3125 80.046875 -98.90625 C 75.472656 -100.507812 70.984375 -101.3125 66.578125 -101.3125 Z M 66.578125 -101.3125 "/></g></g></g><g fill="#ffffff" fill-opacity="1"><g transform="translate(1175.889681, 256.369787)"><g><path d="M 124.96875 -60.625 C 124.96875 -40.601562 120.003906 -25.21875 110.078125 -14.46875 C 100.148438 -3.71875 85.925781 1.65625 67.40625 1.65625 C 48.875 1.65625 34.644531 -3.71875 24.71875 -14.46875 C 14.800781 -25.21875 9.84375 -40.65625 9.84375 -60.78125 C 9.84375 -80.90625 14.816406 -96.273438 24.765625 -106.890625 C 34.722656 -117.503906 48.988281 -122.8125 67.5625 -122.8125 C 86.144531 -122.8125 100.359375 -117.460938 110.203125 -106.765625 C 120.046875 -96.066406 124.96875 -80.6875 124.96875 -60.625 Z M 36.71875 -60.625 C 36.71875 -47.113281 39.28125 -36.9375 44.40625 -30.09375 C 49.539062 -23.257812 57.207031 -19.84375 67.40625 -19.84375 C 87.851562 -19.84375 98.078125 -33.4375 98.078125 -60.625 C 98.078125 -87.851562 87.90625 -101.46875 67.5625 -101.46875 C 57.363281 -101.46875 49.671875 -98.035156 44.484375 -91.171875 C 39.304688 -84.316406 36.71875 -74.132812 36.71875 -60.625 Z M 36.71875 -60.625 "/></g></g></g><g fill="#ffffff" fill-opacity="1"><g transform="translate(1310.693118, 256.369787)"><g><path d="M 115.53125 -61.609375 C 115.53125 -41.710938 109.863281 -26.46875 98.53125 -15.875 C 87.207031 -5.289062 70.847656 0 49.453125 0 L 15.21875 0 L 15.21875 -120.90625 L 53.171875 -120.90625 C 72.910156 -120.90625 88.238281 -115.695312 99.15625 -105.28125 C 110.070312 -94.863281 115.53125 -80.304688 115.53125 -61.609375 Z M 88.90625 -60.953125 C 88.90625 -86.921875 77.4375 -99.90625 54.5 -99.90625 L 40.859375 -99.90625 L 40.859375 -21.171875 L 51.859375 -21.171875 C 76.554688 -21.171875 88.90625 -34.429688 88.90625 -60.953125 Z M 88.90625 -60.953125 "/></g></g></g><g fill="#ffffff" fill-opacity="1"><g transform="translate(1436.068545, 256.369787)"><g><path d="M 84.859375 0 L 15.21875 0 L 15.21875 -120.90625 L 84.859375 -120.90625 L 84.859375 -99.90625 L 40.859375 -99.90625 L 40.859375 -73.359375 L 81.796875 -73.359375 L 81.796875 -52.34375 L 40.859375 -52.34375 L 40.859375 -21.171875 L 84.859375 -21.171875 Z M 84.859375 0 "/></g></g></g><g fill="#ffffff" fill-opacity="1"><g transform="translate(1084.301162, 354.997718)"><g><path d="M 38.515625 -14.9375 C 38.515625 -10.082031 36.765625 -6.253906 33.265625 -3.453125 C 29.773438 -0.660156 24.914062 0.734375 18.6875 0.734375 C 12.945312 0.734375 7.867188 -0.34375 3.453125 -2.5 L 3.453125 -13.09375 C 7.085938 -11.476562 10.160156 -10.335938 12.671875 -9.671875 C 15.179688 -9.015625 17.476562 -8.6875 19.5625 -8.6875 C 22.0625 -8.6875 23.976562 -9.160156 25.3125 -10.109375 C 26.65625 -11.066406 27.328125 -12.488281 27.328125 -14.375 C 27.328125 -15.4375 27.03125 -16.375 26.4375 -17.1875 C 25.851562 -18.007812 24.988281 -18.800781 23.84375 -19.5625 C 22.707031 -20.320312 20.382812 -21.535156 16.875 -23.203125 C 13.59375 -24.753906 11.128906 -26.238281 9.484375 -27.65625 C 7.847656 -29.082031 6.535156 -30.738281 5.546875 -32.625 C 4.566406 -34.507812 4.078125 -36.71875 4.078125 -39.25 C 4.078125 -44 5.6875 -47.734375 8.90625 -50.453125 C 12.132812 -53.179688 16.597656 -54.546875 22.296875 -54.546875 C 25.085938 -54.546875 27.75 -54.210938 30.28125 -53.546875 C 32.820312 -52.890625 35.476562 -51.960938 38.25 -50.765625 L 34.578125 -41.890625 C 31.703125 -43.066406 29.328125 -43.890625 27.453125 -44.359375 C 25.578125 -44.828125 23.734375 -45.0625 21.921875 -45.0625 C 19.765625 -45.0625 18.109375 -44.554688 16.953125 -43.546875 C 15.804688 -42.546875 15.234375 -41.234375 15.234375 -39.609375 C 15.234375 -38.609375 15.460938 -37.734375 15.921875 -36.984375 C 16.390625 -36.234375 17.128906 -35.507812 18.140625 -34.8125 C 19.160156 -34.113281 21.570312 -32.859375 25.375 -31.046875 C 30.40625 -28.640625 33.851562 -26.226562 35.71875 -23.8125 C 37.582031 -21.394531 38.515625 -18.4375 38.515625 -14.9375 Z M 38.515625 -14.9375 "/></g></g></g><g fill="#ffffff" fill-opacity="1"><g transform="translate(1125.787291, 354.997718)"><g><path d="M 55.578125 -26.953125 C 55.578125 -18.054688 53.367188 -11.21875 48.953125 -6.4375 C 44.535156 -1.65625 38.210938 0.734375 29.984375 0.734375 C 21.742188 0.734375 15.414062 -1.65625 11 -6.4375 C 6.582031 -11.21875 4.375 -18.082031 4.375 -27.03125 C 4.375 -35.976562 6.585938 -42.8125 11.015625 -47.53125 C 15.441406 -52.257812 21.785156 -54.625 30.046875 -54.625 C 38.316406 -54.625 44.640625 -52.242188 49.015625 -47.484375 C 53.390625 -42.722656 55.578125 -35.878906 55.578125 -26.953125 Z M 16.328125 -26.953125 C 16.328125 -20.953125 17.46875 -16.429688 19.75 -13.390625 C 22.03125 -10.347656 25.441406 -8.828125 29.984375 -8.828125 C 39.078125 -8.828125 43.625 -14.867188 43.625 -26.953125 C 43.625 -39.066406 39.097656 -45.125 30.046875 -45.125 C 25.515625 -45.125 22.09375 -43.597656 19.78125 -40.546875 C 17.476562 -37.492188 16.328125 -32.960938 16.328125 -26.953125 Z M 16.328125 -26.953125 "/></g></g></g><g fill="#ffffff" fill-opacity="1"><g transform="translate(1185.736217, 354.997718)"><g><path d="M 6.765625 0 L 6.765625 -53.78125 L 18.171875 -53.78125 L 18.171875 -9.421875 L 39.984375 -9.421875 L 39.984375 0 Z M 6.765625 0 "/></g></g></g><g fill="#ffffff" fill-opacity="1"><g transform="translate(1228.288923, 354.997718)"><g><path d="M 50.53125 -53.78125 L 50.53125 -18.984375 C 50.53125 -15.003906 49.640625 -11.519531 47.859375 -8.53125 C 46.085938 -5.539062 43.519531 -3.25 40.15625 -1.65625 C 36.800781 -0.0625 32.832031 0.734375 28.25 0.734375 C 21.332031 0.734375 15.960938 -1.035156 12.140625 -4.578125 C 8.316406 -8.117188 6.40625 -12.96875 6.40625 -19.125 L 6.40625 -53.78125 L 17.765625 -53.78125 L 17.765625 -20.859375 C 17.765625 -16.710938 18.597656 -13.671875 20.265625 -11.734375 C 21.929688 -9.796875 24.691406 -8.828125 28.546875 -8.828125 C 32.273438 -8.828125 34.976562 -9.800781 36.65625 -11.75 C 38.332031 -13.695312 39.171875 -16.753906 39.171875 -20.921875 L 39.171875 -53.78125 Z M 50.53125 -53.78125 "/></g></g></g><g fill="#ffffff" fill-opacity="1"><g transform="translate(1285.222013, 354.997718)"><g><path d="M 27.515625 0 L 16.109375 0 L 16.109375 -44.28125 L 1.515625 -44.28125 L 1.515625 -53.78125 L 42.109375 -53.78125 L 42.109375 -44.28125 L 27.515625 -44.28125 Z M 27.515625 0 "/></g></g></g><g fill="#ffffff" fill-opacity="1"><g transform="translate(1328.841295, 354.997718)"><g><path d="M 6.765625 0 L 6.765625 -53.78125 L 18.171875 -53.78125 L 18.171875 0 Z M 6.765625 0 "/></g></g></g><g fill="#ffffff" fill-opacity="1"><g transform="translate(1353.777106, 354.997718)"><g><path d="M 55.578125 -26.953125 C 55.578125 -18.054688 53.367188 -11.21875 48.953125 -6.4375 C 44.535156 -1.65625 38.210938 0.734375 29.984375 0.734375 C 21.742188 0.734375 15.414062 -1.65625 11 -6.4375 C 6.582031 -11.21875 4.375 -18.082031 4.375 -27.03125 C 4.375 -35.976562 6.585938 -42.8125 11.015625 -47.53125 C 15.441406 -52.257812 21.785156 -54.625 30.046875 -54.625 C 38.316406 -54.625 44.640625 -52.242188 49.015625 -47.484375 C 53.390625 -42.722656 55.578125 -35.878906 55.578125 -26.953125 Z M 16.328125 -26.953125 C 16.328125 -20.953125 17.46875 -16.429688 19.75 -13.390625 C 22.03125 -10.347656 25.441406 -8.828125 29.984375 -8.828125 C 39.078125 -8.828125 43.625 -14.867188 43.625 -26.953125 C 43.625 -39.066406 39.097656 -45.125 30.046875 -45.125 C 25.515625 -45.125 22.09375 -43.597656 19.78125 -40.546875 C 17.476562 -37.492188 16.328125 -32.960938 16.328125 -26.953125 Z M 16.328125 -26.953125 "/></g></g></g><g fill="#ffffff" fill-opacity="1"><g transform="translate(1413.726032, 354.997718)"><g><path d="M 54.46875 0 L 39.984375 0 L 16.59375 -40.6875 L 16.25 -40.6875 C 16.71875 -33.5 16.953125 -28.375 16.953125 -25.3125 L 16.953125 0 L 6.765625 0 L 6.765625 -53.78125 L 21.15625 -53.78125 L 44.5 -13.5 L 44.765625 -13.5 C 44.398438 -20.488281 44.21875 -25.429688 44.21875 -28.328125 L 44.21875 -53.78125 L 54.46875 -53.78125 Z M 54.46875 0 "/></g></g></g><g fill="#ffffff" fill-opacity="1"><g transform="translate(1474.962206, 354.997718)"><g><path d="M 38.515625 -14.9375 C 38.515625 -10.082031 36.765625 -6.253906 33.265625 -3.453125 C 29.773438 -0.660156 24.914062 0.734375 18.6875 0.734375 C 12.945312 0.734375 7.867188 -0.34375 3.453125 -2.5 L 3.453125 -13.09375 C 7.085938 -11.476562 10.160156 -10.335938 12.671875 -9.671875 C 15.179688 -9.015625 17.476562 -8.6875 19.5625 -8.6875 C 22.0625 -8.6875 23.976562 -9.160156 25.3125 -10.109375 C 26.65625 -11.066406 27.328125 -12.488281 27.328125 -14.375 C 27.328125 -15.4375 27.03125 -16.375 26.4375 -17.1875 C 25.851562 -18.007812 24.988281 -18.800781 23.84375 -19.5625 C 22.707031 -20.320312 20.382812 -21.535156 16.875 -23.203125 C 13.59375 -24.753906 11.128906 -26.238281 9.484375 -27.65625 C 7.847656 -29.082031 6.535156 -30.738281 5.546875 -32.625 C 4.566406 -34.507812 4.078125 -36.71875 4.078125 -39.25 C 4.078125 -44 5.6875 -47.734375 8.90625 -50.453125 C 12.132812 -53.179688 16.597656 -54.546875 22.296875 -54.546875 C 25.085938 -54.546875 27.75 -54.210938 30.28125 -53.546875 C 32.820312 -52.890625 35.476562 -51.960938 38.25 -50.765625 L 34.578125 -41.890625 C 31.703125 -43.066406 29.328125 -43.890625 27.453125 -44.359375 C 25.578125 -44.828125 23.734375 -45.0625 21.921875 -45.0625 C 19.765625 -45.0625 18.109375 -44.554688 16.953125 -43.546875 C 15.804688 -42.546875 15.234375 -41.234375 15.234375 -39.609375 C 15.234375 -38.609375 15.460938 -37.734375 15.921875 -36.984375 C 16.390625 -36.234375 17.128906 -35.507812 18.140625 -34.8125 C 19.160156 -34.113281 21.570312 -32.859375 25.375 -31.046875 C 30.40625 -28.640625 33.851562 -26.226562 35.71875 -23.8125 C 37.582031 -21.394531 38.515625 -18.4375 38.515625 -14.9375 Z M 38.515625 -14.9375 "/></g></g></g><g clip-path="url(#6bbfec90bb)"><path fill="#ffffff" d="M 488.949219 265.773438 L 506.746094 235.046875 L 419.867188 84.914062 L 364.335938 181.394531 C 362.632812 181.070312 360.890625 180.863281 359.113281 180.863281 C 343.457031 180.863281 330.714844 193.605469 330.714844 209.261719 C 330.714844 224.917969 343.457031 237.660156 359.113281 237.660156 C 360.890625 237.660156 362.632812 237.453125 364.335938 237.128906 L 424.089844 340.3125 L 396.996094 387.207031 C 385.523438 385.105469 373.464844 390.199219 367.292969 400.875 C 359.492188 414.433594 364.148438 431.832031 377.703125 439.648438 C 382.152344 442.242188 387.039062 443.457031 391.847656 443.457031 C 401.691406 443.457031 411.234375 438.34375 416.496094 429.257812 C 422.667969 418.578125 421.003906 405.570312 413.410156 396.671875 L 445.992188 340.332031 L 380.675781 227.570312 C 384.878906 222.609375 387.53125 216.285156 387.53125 209.28125 C 387.53125 202.277344 384.898438 195.953125 380.675781 191.011719 L 419.921875 122.796875 L 484.878906 235.066406 L 472.535156 256.367188 C 466.097656 255.171875 459.265625 256.042969 453.1875 259.585938 C 439.613281 267.421875 434.972656 284.839844 442.8125 298.394531 C 448.074219 307.464844 457.636719 312.558594 467.460938 312.558594 C 472.289062 312.558594 477.175781 311.34375 481.625 308.75 C 495.179688 300.914062 499.816406 283.515625 491.980469 269.960938 C 491.109375 268.445312 490.066406 267.082031 488.96875 265.792969 Z M 400.101562 419.789062 C 397.46875 424.296875 391.636719 425.808594 387.152344 423.273438 C 382.644531 420.660156 381.09375 414.847656 383.667969 410.324219 C 385.429688 407.292969 388.628906 405.589844 391.902344 405.589844 C 393.511719 405.589844 395.140625 405.988281 396.617188 406.839844 C 401.140625 409.472656 402.695312 415.246094 400.101562 419.789062 Z M 349.644531 209.28125 C 349.644531 204.074219 353.90625 199.816406 359.113281 199.816406 C 364.320312 199.816406 368.578125 204.074219 368.578125 209.28125 C 368.578125 214.488281 364.320312 218.746094 359.113281 218.746094 C 353.90625 218.746094 349.644531 214.488281 349.644531 209.28125 Z M 476.511719 286.601562 C 475.867188 289.042969 474.316406 291.070312 472.136719 292.355469 C 467.574219 294.910156 461.78125 293.398438 459.167969 288.890625 C 456.558594 284.367188 458.109375 278.574219 462.632812 275.941406 C 464.128906 275.089844 465.757812 274.691406 467.367188 274.691406 C 470.644531 274.691406 473.824219 276.378906 475.585938 279.40625 C 476.832031 281.601562 477.195312 284.160156 476.53125 286.601562 Z M 476.511719 286.601562 " fill-opacity="1" fill-rule="nonzero"/></g><g clip-path="url(#783c343993)"><path fill="#ffffff" d="M 230.011719 214.867188 C 245.667969 214.867188 258.410156 202.125 258.410156 186.46875 C 258.410156 179.445312 255.742188 173.082031 251.5 168.121094 L 310.984375 64.65625 L 365.226562 64.65625 C 369.144531 75.65625 379.558594 83.589844 391.882812 83.589844 C 407.542969 83.589844 420.28125 70.847656 420.28125 55.191406 C 420.28125 39.53125 407.542969 26.792969 391.882812 26.792969 C 379.558594 26.792969 369.144531 34.722656 365.226562 45.722656 L 300.042969 45.722656 L 235.144531 158.578125 C 233.476562 158.277344 231.753906 158.070312 229.992188 158.070312 C 217.6875 158.070312 207.292969 165.984375 203.355469 176.945312 L 124.84375 176.945312 L 189.648438 64.65625 L 214.335938 64.65625 C 216.609375 71.019531 220.699219 76.488281 226.605469 79.878906 C 230.957031 82.414062 235.824219 83.703125 240.746094 83.703125 C 243.207031 83.703125 245.707031 83.363281 248.148438 82.71875 C 255.496094 80.75 261.609375 76.015625 265.398438 69.445312 C 273.195312 55.871094 268.519531 38.492188 254.964844 30.691406 C 248.394531 26.886719 240.726562 25.882812 233.421875 27.851562 C 226.074219 29.820312 219.960938 34.554688 216.191406 41.105469 C 215.320312 42.582031 214.65625 44.152344 214.089844 45.722656 L 178.707031 45.722656 L 92.050781 195.875 L 203.355469 195.875 C 207.253906 206.894531 217.6875 214.867188 230.03125 214.867188 Z M 391.882812 45.722656 C 397.089844 45.722656 401.351562 49.984375 401.351562 55.191406 C 401.351562 60.398438 397.089844 64.65625 391.882812 64.65625 C 386.675781 64.65625 382.417969 60.398438 382.417969 55.191406 C 382.417969 49.984375 386.675781 45.722656 391.882812 45.722656 Z M 232.585938 50.550781 C 233.835938 48.375 235.882812 46.804688 238.324219 46.140625 C 239.136719 45.933594 239.972656 45.820312 240.804688 45.820312 C 242.433594 45.820312 244.042969 46.234375 245.5 47.066406 C 247.675781 48.335938 249.246094 50.382812 249.890625 52.824219 C 250.554688 55.265625 250.214844 57.820312 248.945312 60.019531 C 247.695312 62.195312 245.652344 63.765625 243.207031 64.429688 C 240.746094 65.054688 238.210938 64.75 236.015625 63.464844 C 233.835938 62.214844 232.265625 60.167969 231.601562 57.726562 C 230.957031 55.285156 231.28125 52.730469 232.566406 50.53125 Z M 230.011719 177 C 235.21875 177 239.476562 181.261719 239.476562 186.46875 C 239.476562 191.671875 235.21875 195.933594 230.011719 195.933594 C 224.804688 195.933594 220.546875 191.671875 220.546875 186.46875 C 220.546875 181.261719 224.804688 177 230.011719 177 Z M 230.011719 177 " fill-opacity="1" fill-rule="nonzero"/></g><path fill="#ffffff" d="M 303.28125 309.660156 C 303.28125 294.003906 290.539062 281.261719 274.882812 281.261719 C 262.558594 281.261719 252.144531 289.195312 248.226562 300.195312 L 128.855469 300.363281 L 101.765625 253.488281 C 109.335938 244.589844 111.023438 231.601562 104.851562 220.925781 C 97.050781 207.386719 79.652344 202.75 66.078125 210.511719 C 52.519531 218.347656 47.863281 235.75 55.683594 249.324219 C 60.925781 258.410156 70.488281 263.523438 80.332031 263.523438 C 82.019531 263.523438 83.683594 263.179688 85.351562 262.878906 L 117.96875 319.316406 L 248.246094 319.144531 C 252.164062 330.144531 262.574219 338.078125 274.902344 338.078125 C 276.679688 338.078125 278.402344 337.871094 280.105469 337.546875 L 319.296875 405.648438 L 189.648438 405.648438 L 177.34375 384.386719 C 181.621094 379.40625 184.308594 373.007812 184.308594 365.925781 C 184.308594 350.289062 171.53125 337.566406 155.875 337.566406 C 140.214844 337.605469 127.492188 350.347656 127.511719 366.003906 C 127.511719 373.574219 130.464844 380.714844 135.824219 386.070312 C 141.179688 391.429688 148.300781 394.363281 155.875 394.363281 L 155.929688 394.363281 C 157.652344 394.363281 159.300781 394.15625 160.945312 393.851562 L 178.742188 424.578125 L 352.011719 424.578125 L 296.425781 327.96875 C 300.648438 323.007812 303.28125 316.664062 303.28125 309.679688 Z M 72.058594 239.875 C 69.445312 235.351562 71 229.539062 75.523438 226.925781 C 79.972656 224.257812 85.84375 225.847656 88.472656 230.390625 C 91.085938 234.894531 89.535156 240.707031 84.992188 243.339844 C 80.503906 245.914062 74.652344 244.382812 72.058594 239.875 Z M 155.890625 375.414062 C 153.375 375.414062 150.988281 374.429688 149.207031 372.648438 C 147.410156 370.851562 146.445312 368.484375 146.445312 365.945312 C 146.445312 360.722656 150.6875 356.460938 155.890625 356.460938 C 161.097656 356.460938 165.359375 360.722656 165.378906 365.910156 C 165.378906 371.132812 161.136719 375.394531 155.910156 375.394531 Z M 265.414062 309.660156 C 265.414062 304.453125 269.675781 300.195312 274.882812 300.195312 C 280.089844 300.195312 284.347656 304.453125 284.347656 309.660156 C 284.347656 314.867188 280.089844 319.125 274.882812 319.125 C 269.675781 319.125 265.414062 314.867188 265.414062 309.660156 Z M 265.414062 309.660156 " fill-opacity="1" fill-rule="nonzero"/></svg>