<svg xmlns="http://www.w3.org/2000/svg" xmlns:xlink="http://www.w3.org/1999/xlink" width="500" zoomAndPan="magnify" viewBox="0 0 375 374.999991" height="500" preserveAspectRatio="xMidYMid meet" version="1.0"><defs><g/><clipPath id="e35ee565fd"><path d="M 229 69 L 365.585938 69 L 365.585938 349 L 229 349 Z M 229 69 " clip-rule="nonzero"/></clipPath><clipPath id="44386f7a70"><path d="M 43 24.703125 L 299 24.703125 L 299 172 L 43 172 Z M 43 24.703125 " clip-rule="nonzero"/></clipPath></defs><rect x="-37.5" width="450" fill="#ffffff" y="-37.499999" height="449.999989" fill-opacity="1"/><rect x="-37.5" width="450" fill="#000000" y="-37.499999" height="449.999989" fill-opacity="1"/><g clip-path="url(#e35ee565fd)"><path fill="#ffffff" d="M 352.214844 210.65625 L 366.054688 186.757812 L 298.488281 69.996094 L 255.300781 145.03125 C 253.976562 144.78125 252.621094 144.617188 251.238281 144.617188 C 239.0625 144.617188 229.152344 154.527344 229.152344 166.703125 C 229.152344 178.882812 239.0625 188.789062 251.238281 188.789062 C 252.621094 188.789062 253.976562 188.628906 255.300781 188.378906 L 301.769531 268.625 L 280.699219 305.09375 C 271.777344 303.460938 262.398438 307.421875 257.597656 315.726562 C 251.53125 326.269531 255.152344 339.800781 265.695312 345.878906 C 269.15625 347.898438 272.957031 348.839844 276.695312 348.839844 C 284.351562 348.839844 291.773438 344.863281 295.867188 337.796875 C 300.664062 329.492188 299.371094 319.378906 293.464844 312.457031 L 318.804688 268.640625 L 268.007812 180.941406 C 271.277344 177.085938 273.339844 172.167969 273.339844 166.71875 C 273.339844 161.273438 271.292969 156.355469 268.007812 152.511719 L 298.53125 99.460938 L 349.050781 186.773438 L 339.449219 203.339844 C 334.441406 202.410156 329.128906 203.085938 324.402344 205.839844 C 313.84375 211.9375 310.238281 225.484375 316.332031 236.023438 C 320.425781 243.078125 327.859375 247.039062 335.503906 247.039062 C 339.257812 247.039062 343.054688 246.097656 346.515625 244.078125 C 357.058594 237.984375 360.667969 224.453125 354.570312 213.910156 C 353.894531 212.730469 353.082031 211.671875 352.230469 210.671875 Z M 283.113281 330.433594 C 281.070312 333.941406 276.535156 335.117188 273.042969 333.144531 C 269.539062 331.113281 268.332031 326.59375 270.335938 323.074219 C 271.703125 320.71875 274.191406 319.390625 276.738281 319.390625 C 277.992188 319.390625 279.257812 319.703125 280.40625 320.363281 C 283.925781 322.410156 285.132812 326.902344 283.113281 330.433594 Z M 243.875 166.71875 C 243.875 162.671875 247.1875 159.355469 251.238281 159.355469 C 255.285156 159.355469 258.597656 162.671875 258.597656 166.71875 C 258.597656 170.769531 255.285156 174.082031 251.238281 174.082031 C 247.1875 174.082031 243.875 170.769531 243.875 166.71875 Z M 342.539062 226.851562 C 342.039062 228.75 340.832031 230.328125 339.140625 231.328125 C 335.589844 233.316406 331.085938 232.136719 329.054688 228.632812 C 327.023438 225.113281 328.230469 220.609375 331.75 218.5625 C 332.910156 217.898438 334.179688 217.589844 335.429688 217.589844 C 337.976562 217.589844 340.449219 218.902344 341.820312 221.257812 C 342.792969 222.964844 343.070312 224.953125 342.554688 226.851562 Z M 342.539062 226.851562 " fill-opacity="1" fill-rule="nonzero"/></g><g clip-path="url(#44386f7a70)"><path fill="#ffffff" d="M 150.835938 171.0625 C 163.011719 171.0625 172.921875 161.152344 172.921875 148.976562 C 172.921875 143.515625 170.84375 138.566406 167.546875 134.710938 L 213.808594 54.242188 L 255.992188 54.242188 C 259.042969 62.796875 267.140625 68.96875 276.726562 68.96875 C 288.902344 68.96875 298.8125 59.058594 298.8125 46.882812 C 298.8125 34.703125 288.902344 24.796875 276.726562 24.796875 C 267.140625 24.796875 259.042969 30.964844 255.992188 39.519531 L 205.296875 39.519531 L 154.824219 127.289062 C 153.527344 127.054688 152.1875 126.890625 150.820312 126.890625 C 141.25 126.890625 133.164062 133.046875 130.101562 141.570312 L 69.042969 141.570312 L 119.441406 54.242188 L 138.644531 54.242188 C 140.410156 59.191406 143.589844 63.445312 148.183594 66.082031 C 151.570312 68.054688 155.355469 69.054688 159.183594 69.054688 C 161.097656 69.054688 163.039062 68.789062 164.941406 68.289062 C 170.652344 66.757812 175.410156 63.078125 178.355469 57.96875 C 184.421875 47.410156 180.785156 33.894531 170.242188 27.828125 C 165.132812 24.867188 159.167969 24.089844 153.484375 25.621094 C 147.773438 27.152344 143.015625 30.832031 140.085938 35.925781 C 139.410156 37.074219 138.894531 38.296875 138.453125 39.519531 L 110.933594 39.519531 L 43.542969 156.292969 L 130.101562 156.292969 C 133.136719 164.863281 141.25 171.0625 150.847656 171.0625 Z M 276.726562 39.519531 C 280.773438 39.519531 284.085938 42.832031 284.085938 46.882812 C 284.085938 50.929688 280.773438 54.242188 276.726562 54.242188 C 272.675781 54.242188 269.363281 50.929688 269.363281 46.882812 C 269.363281 42.832031 272.675781 39.519531 276.726562 39.519531 Z M 152.835938 43.273438 C 153.808594 41.582031 155.398438 40.359375 157.296875 39.84375 C 157.933594 39.679688 158.578125 39.59375 159.226562 39.59375 C 160.492188 39.59375 161.746094 39.917969 162.878906 40.5625 C 164.574219 41.550781 165.792969 43.140625 166.296875 45.039062 C 166.808594 46.941406 166.546875 48.925781 165.558594 50.636719 C 164.585938 52.328125 162.996094 53.550781 161.097656 54.066406 C 159.183594 54.550781 157.210938 54.316406 155.503906 53.316406 C 153.808594 52.34375 152.585938 50.753906 152.070312 48.855469 C 151.570312 46.953125 151.820312 44.964844 152.824219 43.257812 Z M 150.835938 141.613281 C 154.882812 141.613281 158.195312 144.929688 158.195312 148.976562 C 158.195312 153.027344 154.882812 156.339844 150.835938 156.339844 C 146.785156 156.339844 143.472656 153.027344 143.472656 148.976562 C 143.472656 144.929688 146.785156 141.613281 150.835938 141.613281 Z M 150.835938 141.613281 " fill-opacity="1" fill-rule="nonzero"/></g><path fill="#ffffff" d="M 207.816406 244.785156 C 207.816406 232.609375 197.90625 222.699219 185.730469 222.699219 C 176.144531 222.699219 168.046875 228.871094 165 237.425781 L 72.164062 237.554688 L 51.09375 201.101562 C 56.984375 194.179688 58.292969 184.078125 53.496094 175.773438 C 47.429688 165.246094 33.898438 161.640625 23.339844 167.675781 C 12.796875 173.773438 9.175781 187.304688 15.257812 197.859375 C 19.335938 204.929688 26.769531 208.902344 34.425781 208.902344 C 35.738281 208.902344 37.03125 208.636719 38.328125 208.402344 L 63.699219 252.296875 L 165.015625 252.164062 C 168.0625 260.71875 176.160156 266.886719 185.746094 266.886719 C 187.128906 266.886719 188.46875 266.726562 189.792969 266.472656 L 220.273438 319.4375 L 119.441406 319.4375 L 109.871094 302.902344 C 113.199219 299.027344 115.292969 294.050781 115.292969 288.546875 C 115.292969 276.382812 105.351562 266.488281 93.175781 266.488281 C 81 266.519531 71.105469 276.425781 71.121094 288.605469 C 71.121094 294.492188 73.417969 300.046875 77.582031 304.210938 C 81.75 308.378906 87.285156 310.660156 93.175781 310.660156 L 93.21875 310.660156 C 94.558594 310.660156 95.839844 310.5 97.121094 310.261719 L 110.960938 334.160156 L 245.714844 334.160156 L 202.488281 259.023438 C 205.769531 255.167969 207.816406 250.234375 207.816406 244.800781 Z M 27.992188 190.511719 C 25.960938 186.996094 27.167969 182.472656 30.6875 180.441406 C 34.148438 178.367188 38.710938 179.601562 40.757812 183.136719 C 42.789062 186.640625 41.582031 191.160156 38.050781 193.207031 C 34.558594 195.210938 30.011719 194.019531 27.992188 190.511719 Z M 93.191406 295.921875 C 91.230469 295.921875 89.375 295.15625 87.992188 293.773438 C 86.59375 292.375 85.84375 290.535156 85.84375 288.558594 C 85.84375 284.496094 89.140625 281.183594 93.191406 281.183594 C 97.238281 281.183594 100.550781 284.496094 100.566406 288.53125 C 100.566406 292.59375 97.269531 295.90625 93.207031 295.90625 Z M 178.367188 244.785156 C 178.367188 240.738281 181.679688 237.425781 185.730469 237.425781 C 189.78125 237.425781 193.09375 240.738281 193.09375 244.785156 C 193.09375 248.835938 189.78125 252.148438 185.730469 252.148438 C 181.679688 252.148438 178.367188 248.835938 178.367188 244.785156 Z M 178.367188 244.785156 " fill-opacity="1" fill-rule="nonzero"/><g fill="#ffffff" fill-opacity="1"><g transform="translate(134.703248, 139.480668)"><g><path d="M 1.25 -1.53125 C 1.25 -2.132812 1.410156 -2.585938 1.734375 -2.890625 C 2.054688 -3.203125 2.523438 -3.359375 3.140625 -3.359375 C 3.742188 -3.359375 4.207031 -3.203125 4.53125 -2.890625 C 4.851562 -2.578125 5.015625 -2.125 5.015625 -1.53125 C 5.015625 -0.96875 4.847656 -0.519531 4.515625 -0.1875 C 4.191406 0.132812 3.734375 0.296875 3.140625 0.296875 C 2.546875 0.296875 2.082031 0.132812 1.75 -0.1875 C 1.414062 -0.507812 1.25 -0.957031 1.25 -1.53125 Z M 1.25 -1.53125 "/></g></g></g></svg>