<svg xmlns="http://www.w3.org/2000/svg" xmlns:xlink="http://www.w3.org/1999/xlink" width="500" zoomAndPan="magnify" viewBox="0 0 375 374.999991" height="500" preserveAspectRatio="xMidYMid meet" version="1.0"><defs><g/><clipPath id="df03f15811"><path d="M 27.421875 149 L 77 149 L 77 171 L 27.421875 171 Z M 27.421875 149 " clip-rule="nonzero"/></clipPath><clipPath id="0b43389c41"><path d="M 299 149.429688 L 347.671875 149.429688 L 347.671875 171 L 299 171 Z M 299 149.429688 " clip-rule="nonzero"/></clipPath></defs><path fill="#000000" d="M 273.847656 88.964844 L 300.773438 62.039062 C 304.929688 57.878906 304.929688 51.113281 300.773438 46.953125 C 296.597656 42.785156 289.84375 42.785156 285.671875 46.953125 L 259.121094 73.496094 C 264.484375 78.152344 269.378906 83.351562 273.847656 88.964844 " fill-opacity="1" fill-rule="nonzero"/><path fill="#000000" d="M 187.542969 46.308594 C 187.640625 46.308594 187.730469 46.308594 187.839844 46.308594 C 191.355469 46.308594 194.804688 46.53125 198.222656 46.894531 L 198.222656 10.730469 C 198.222656 4.84375 193.4375 0.078125 187.542969 0.078125 C 181.644531 0.078125 176.886719 4.84375 176.886719 10.730469 L 176.886719 46.894531 C 180.289062 46.53125 183.742188 46.308594 187.242188 46.308594 C 187.34375 46.308594 187.441406 46.308594 187.542969 46.308594 " fill-opacity="1" fill-rule="nonzero"/><path fill="#000000" d="M 101.246094 88.976562 C 105.707031 83.367188 110.585938 78.152344 115.9375 73.496094 L 89.402344 46.953125 C 85.242188 42.785156 78.472656 42.785156 74.3125 46.953125 C 70.128906 51.113281 70.128906 57.878906 74.3125 62.039062 L 101.246094 88.976562 " fill-opacity="1" fill-rule="nonzero"/><g clip-path="url(#df03f15811)"><path fill="#000000" d="M 75.007812 164.660156 C 75.007812 159.503906 75.429688 154.453125 76.039062 149.488281 L 38.089844 149.488281 C 32.191406 149.488281 27.421875 154.265625 27.421875 160.152344 C 27.421875 166.046875 32.191406 170.828125 38.089844 170.828125 L 75.144531 170.828125 C 75.082031 168.804688 75.007812 166.753906 75.007812 164.660156 " fill-opacity="1" fill-rule="nonzero"/></g><path fill="#000000" d="M 74.3125 258.25 C 70.128906 262.40625 70.128906 269.175781 74.3125 273.347656 C 78.472656 277.519531 85.242188 277.519531 89.402344 273.347656 L 108.960938 253.792969 C 104.550781 248.828125 99.941406 243.328125 95.625 236.957031 L 74.3125 258.25 " fill-opacity="1" fill-rule="nonzero"/><path fill="#000000" d="M 192.3125 363.8125 L 164.308594 363.8125 C 164.292969 364.136719 164.246094 364.417969 164.246094 364.742188 C 164.246094 370.367188 172.886719 374.921875 180.898438 374.921875 L 194.183594 374.921875 C 202.195312 374.921875 210.824219 370.367188 210.824219 364.742188 C 210.824219 364.417969 210.789062 364.136719 210.789062 363.8125 L 192.3125 363.8125 " fill-opacity="1" fill-rule="nonzero"/><path fill="#000000" d="M 214.738281 337.890625 L 160.359375 337.890625 C 154.734375 337.890625 150.175781 342.457031 150.175781 348.070312 C 150.175781 353.695312 154.734375 358.277344 160.359375 358.277344 L 214.738281 358.277344 C 220.347656 358.277344 224.910156 353.695312 224.910156 348.070312 C 224.910156 342.457031 220.347656 337.890625 214.738281 337.890625 " fill-opacity="1" fill-rule="nonzero"/><path fill="#000000" d="M 214.738281 312.179688 L 160.359375 312.179688 C 154.734375 312.179688 150.175781 316.738281 150.175781 322.371094 C 150.175781 327.984375 154.734375 332.550781 160.359375 332.550781 L 214.738281 332.550781 C 220.347656 332.550781 224.910156 327.984375 224.910156 322.371094 C 224.910156 316.738281 220.347656 312.179688 214.738281 312.179688 " fill-opacity="1" fill-rule="nonzero"/><path fill="#000000" d="M 182.066406 108.992188 C 169.722656 109.476562 161.3125 112.828125 154.910156 117.394531 C 148.523438 121.976562 144.039062 128.082031 140.835938 134.613281 C 134.40625 147.609375 133.859375 162.023438 133.898438 162.992188 L 133.898438 163.003906 C 133.898438 169.089844 128.953125 174.03125 122.878906 174.03125 C 116.796875 174.03125 111.851562 169.089844 111.851562 163.003906 C 111.851562 162.535156 111.878906 156.9375 113.34375 148.855469 C 114.820312 140.785156 117.714844 130.167969 123.851562 119.703125 C 127.933594 112.753906 133.523438 105.863281 141.085938 100.199219 C 151.144531 92.628906 164.644531 87.527344 181.296875 86.980469 C 187.378906 86.769531 192.484375 91.523438 192.695312 97.605469 C 192.917969 103.679688 188.164062 108.792969 182.066406 108.992188 Z M 285.25 164.660156 C 285.261719 142.523438 277.882812 122.050781 265.480469 105.675781 C 254.574219 91.261719 239.773438 79.976562 222.613281 73.347656 L 222.710938 72.878906 L 215.382812 70.730469 C 209.695312 69.078125 203.835938 67.9375 197.851562 67.328125 L 196.992188 67.214844 L 196.929688 67.214844 C 194.011719 66.941406 190.957031 66.730469 187.777344 66.730469 L 187.304688 66.730469 C 184.128906 66.730469 181.070312 66.941406 178.140625 67.214844 L 178.105469 67.214844 L 177.210938 67.328125 C 171.238281 67.9375 165.375 69.078125 159.699219 70.730469 L 152.609375 72.804688 L 152.683594 73.273438 C 135.445312 79.890625 120.570312 91.210938 109.605469 105.675781 C 97.1875 122.050781 89.808594 142.523438 89.835938 164.660156 C 89.808594 180.523438 92.554688 193.582031 96.839844 204.382812 C 103.234375 220.585938 113.035156 231.53125 120.878906 239.816406 C 124.816406 243.960938 128.269531 247.488281 130.640625 250.492188 C 133.027344 253.546875 134.179688 255.890625 134.527344 257.753906 C 136.242188 266.816406 136.417969 278.25 136.417969 281.15625 L 136.40625 281.714844 L 136.40625 281.988281 C 136.417969 295.097656 147.03125 305.6875 160.125 305.6875 L 214.960938 305.6875 C 228.0625 305.6875 238.667969 295.085938 238.679688 281.988281 L 238.679688 281.863281 L 238.667969 281.714844 L 238.667969 281.179688 C 238.65625 278.3125 238.839844 266.839844 240.570312 257.765625 C 240.792969 256.5 241.363281 255.074219 242.457031 253.320312 C 244.332031 250.257812 247.878906 246.417969 252.265625 241.839844 C 258.832031 234.9375 267.21875 226.222656 273.847656 213.832031 C 280.519531 201.480469 285.285156 185.488281 285.25 164.660156 " fill-opacity="1" fill-rule="nonzero"/><path fill="#000000" d="M 279.472656 236.957031 C 275.140625 243.339844 270.535156 248.828125 266.121094 253.792969 L 285.671875 273.347656 C 289.84375 277.519531 296.597656 277.519531 300.773438 273.347656 C 304.929688 269.175781 304.929688 262.40625 300.773438 258.25 L 279.472656 236.957031 " fill-opacity="1" fill-rule="nonzero"/><g clip-path="url(#0b43389c41)"><path fill="#000000" d="M 336.996094 149.488281 L 299.058594 149.488281 C 299.664062 154.453125 300.0625 159.503906 300.0625 164.660156 C 300.0625 166.753906 300.011719 168.804688 299.9375 170.828125 L 336.996094 170.828125 C 342.894531 170.828125 347.675781 166.046875 347.675781 160.152344 C 347.675781 154.265625 342.894531 149.488281 336.996094 149.488281 " fill-opacity="1" fill-rule="nonzero"/></g><g fill="#000000" fill-opacity="1"><g transform="translate(185.36718, 193.124987)"><g><path d="M 1.1875 -0.828125 C 1.1875 -1.179688 1.265625 -1.445312 1.421875 -1.625 C 1.585938 -1.800781 1.816406 -1.890625 2.109375 -1.890625 C 2.410156 -1.890625 2.644531 -1.800781 2.8125 -1.625 C 2.988281 -1.445312 3.078125 -1.179688 3.078125 -0.828125 C 3.078125 -0.492188 2.988281 -0.234375 2.8125 -0.046875 C 2.644531 0.140625 2.410156 0.234375 2.109375 0.234375 C 1.847656 0.234375 1.628906 0.148438 1.453125 -0.015625 C 1.273438 -0.179688 1.1875 -0.453125 1.1875 -0.828125 Z M 1.1875 -0.828125 "/></g></g></g></svg>