<svg xmlns="http://www.w3.org/2000/svg" xmlns:xlink="http://www.w3.org/1999/xlink" width="500" zoomAndPan="magnify" viewBox="0 0 375 374.999991" height="500" preserveAspectRatio="xMidYMid meet" version="1.0"><defs><g/><clipPath id="8434a53de7"><path d="M 210 78 L 285.714844 78 L 285.714844 232.652344 L 210 232.652344 Z M 210 78 " clip-rule="nonzero"/></clipPath><clipPath id="45241e6747"><path d="M 108 53.402344 L 249 53.402344 L 249 135 L 108 135 Z M 108 53.402344 " clip-rule="nonzero"/></clipPath></defs><g fill="#ffffff" fill-opacity="1"><g transform="translate(27.177608, 301.452491)"><g><path d="M 36.890625 0 L 30.765625 0 L 11.078125 -26.5 L 11.078125 0 L 4.859375 0 L 4.859375 -36.953125 L 10.984375 -36.953125 L 30.765625 -10.390625 L 30.765625 -36.953125 L 36.890625 -36.953125 Z M 36.890625 0 "/></g></g></g><g fill="#ffffff" fill-opacity="1"><g transform="translate(70.029559, 301.452491)"><g><path d="M 31.25 -31.359375 L 11.078125 -31.359375 L 11.078125 -21.375 L 29.140625 -21.375 L 29.140625 -15.78125 L 11.078125 -15.78125 L 11.078125 -5.59375 L 31.875 -5.59375 L 31.875 0 L 4.859375 0 L 4.859375 -36.953125 L 31.25 -36.953125 Z M 31.25 -31.359375 "/></g></g></g><g fill="#ffffff" fill-opacity="1"><g transform="translate(105.704397, 301.452491)"><g><path d="M 21.953125 -19.21875 L 35.421875 0 L 27.96875 0 L 18 -13.9375 L 8.078125 0 L 0.796875 0 L 14.25 -18.953125 L 1.734375 -36.953125 L 8.96875 -36.953125 L 18 -24.125 L 27.078125 -36.953125 L 34.359375 -36.953125 Z M 21.953125 -19.21875 "/></g></g></g><g fill="#ffffff" fill-opacity="1"><g transform="translate(143.279072, 301.452491)"><g><path d="M 30.078125 -31.359375 L 18.375 -31.359375 L 18.375 0 L 12.140625 0 L 12.140625 -31.359375 L 0.46875 -31.359375 L 0.46875 -36.953125 L 30.078125 -36.953125 Z M 30.078125 -31.359375 "/></g></g></g><g fill="#ffffff" fill-opacity="1"><g transform="translate(174.890403, 301.452491)"><g/></g></g><g fill="#ffffff" fill-opacity="1"><g transform="translate(189.561619, 301.452491)"><g><path d="M 21.21875 -37.109375 C 23.820312 -37.109375 26.363281 -36.601562 28.84375 -35.59375 C 31.320312 -34.59375 33.460938 -33.195312 35.265625 -31.40625 L 31.609375 -26.859375 C 30.273438 -28.304688 28.691406 -29.453125 26.859375 -30.296875 C 25.035156 -31.140625 23.191406 -31.5625 21.328125 -31.5625 C 17.628906 -31.5625 14.503906 -30.300781 11.953125 -27.78125 C 9.398438 -25.269531 8.125 -22.203125 8.125 -18.578125 C 8.125 -14.921875 9.398438 -11.832031 11.953125 -9.3125 C 14.503906 -6.800781 17.628906 -5.546875 21.328125 -5.546875 C 25.160156 -5.546875 28.585938 -7.003906 31.609375 -9.921875 L 35.3125 -5.8125 C 33.40625 -3.945312 31.1875 -2.46875 28.65625 -1.375 C 26.125 -0.28125 23.570312 0.265625 21 0.265625 C 15.582031 0.265625 11.023438 -1.535156 7.328125 -5.140625 C 3.640625 -8.753906 1.796875 -13.21875 1.796875 -18.53125 C 1.796875 -23.769531 3.664062 -28.175781 7.40625 -31.75 C 11.15625 -35.320312 15.757812 -37.109375 21.21875 -37.109375 Z M 21.21875 -37.109375 "/></g></g></g><g fill="#ffffff" fill-opacity="1"><g transform="translate(227.400139, 301.452491)"><g><path d="M 7.4375 -31.75 C 11.207031 -35.320312 15.851562 -37.109375 21.375 -37.109375 C 26.894531 -37.109375 31.535156 -35.320312 35.296875 -31.75 C 39.066406 -28.175781 40.953125 -23.75 40.953125 -18.46875 C 40.953125 -13.195312 39.066406 -8.753906 35.296875 -5.140625 C 31.535156 -1.535156 26.894531 0.265625 21.375 0.265625 C 15.851562 0.265625 11.207031 -1.535156 7.4375 -5.140625 C 3.675781 -8.753906 1.796875 -13.195312 1.796875 -18.46875 C 1.796875 -23.75 3.675781 -28.175781 7.4375 -31.75 Z M 21.421875 -31.515625 C 17.765625 -31.515625 14.632812 -30.253906 12.03125 -27.734375 C 9.425781 -25.222656 8.125 -22.132812 8.125 -18.46875 C 8.125 -14.8125 9.4375 -11.707031 12.0625 -9.15625 C 14.6875 -6.601562 17.804688 -5.328125 21.421875 -5.328125 C 25.046875 -5.328125 28.144531 -6.601562 30.71875 -9.15625 C 33.289062 -11.707031 34.578125 -14.8125 34.578125 -18.46875 C 34.578125 -22.132812 33.289062 -25.222656 30.71875 -27.734375 C 28.144531 -30.253906 25.046875 -31.515625 21.421875 -31.515625 Z M 21.421875 -31.515625 "/></g></g></g><g fill="#ffffff" fill-opacity="1"><g transform="translate(271.202012, 301.452491)"><g><path d="M 4.859375 -36.953125 L 20 -36.953125 C 25.53125 -36.953125 30.097656 -35.207031 33.703125 -31.71875 C 37.304688 -28.238281 39.109375 -23.820312 39.109375 -18.46875 C 39.109375 -13.125 37.296875 -8.707031 33.671875 -5.21875 C 30.046875 -1.738281 25.4375 0 19.84375 0 L 4.859375 0 Z M 11.078125 -31.359375 L 11.078125 -5.59375 L 20.15625 -5.59375 C 23.78125 -5.59375 26.796875 -6.796875 29.203125 -9.203125 C 31.617188 -11.617188 32.828125 -14.691406 32.828125 -18.421875 C 32.828125 -22.148438 31.585938 -25.238281 29.109375 -27.6875 C 26.628906 -30.132812 23.5625 -31.359375 19.90625 -31.359375 Z M 11.078125 -31.359375 "/></g></g></g><g fill="#ffffff" fill-opacity="1"><g transform="translate(313.156834, 301.452491)"><g><path d="M 31.25 -31.359375 L 11.078125 -31.359375 L 11.078125 -21.375 L 29.140625 -21.375 L 29.140625 -15.78125 L 11.078125 -15.78125 L 11.078125 -5.59375 L 31.875 -5.59375 L 31.875 0 L 4.859375 0 L 4.859375 -36.953125 L 31.25 -36.953125 Z M 31.25 -31.359375 "/></g></g></g><g clip-path="url(#8434a53de7)"><path fill="#ffffff" d="M 278.359375 155.980469 L 285.996094 142.796875 L 248.722656 78.386719 L 224.898438 119.777344 C 224.167969 119.640625 223.421875 119.550781 222.65625 119.550781 C 215.941406 119.550781 210.472656 125.015625 210.472656 131.734375 C 210.472656 138.453125 215.941406 143.917969 222.65625 143.917969 C 223.421875 143.917969 224.167969 143.828125 224.898438 143.691406 L 250.53125 187.957031 L 238.910156 208.074219 C 233.988281 207.175781 228.8125 209.359375 226.164062 213.941406 C 222.820312 219.753906 224.816406 227.21875 230.632812 230.574219 C 232.542969 231.6875 234.636719 232.207031 236.699219 232.207031 C 240.925781 232.207031 245.019531 230.015625 247.277344 226.117188 C 249.921875 221.535156 249.207031 215.953125 245.953125 212.136719 L 259.929688 187.964844 L 231.910156 139.589844 C 233.710938 137.460938 234.847656 134.746094 234.847656 131.742188 C 234.847656 128.738281 233.71875 126.023438 231.910156 123.90625 L 248.746094 94.640625 L 276.613281 142.804688 L 271.316406 151.941406 C 268.554688 151.429688 265.625 151.804688 263.015625 153.324219 C 257.191406 156.6875 255.203125 164.160156 258.566406 169.972656 C 260.824219 173.863281 264.925781 176.050781 269.140625 176.050781 C 271.210938 176.050781 273.308594 175.53125 275.214844 174.417969 C 281.03125 171.054688 283.023438 163.589844 279.660156 157.773438 C 279.285156 157.125 278.839844 156.539062 278.367188 155.988281 Z M 240.242188 222.054688 C 239.113281 223.988281 236.609375 224.636719 234.6875 223.546875 C 232.753906 222.425781 232.085938 219.933594 233.191406 217.992188 C 233.945312 216.695312 235.320312 215.960938 236.726562 215.960938 C 237.414062 215.960938 238.113281 216.132812 238.746094 216.5 C 240.6875 217.628906 241.355469 220.105469 240.242188 222.054688 Z M 218.597656 131.742188 C 218.597656 129.507812 220.421875 127.679688 222.65625 127.679688 C 224.890625 127.679688 226.71875 129.507812 226.71875 131.742188 C 226.71875 133.976562 224.890625 135.804688 222.65625 135.804688 C 220.421875 135.804688 218.597656 133.976562 218.597656 131.742188 Z M 273.023438 164.914062 C 272.746094 165.960938 272.082031 166.832031 271.148438 167.382812 C 269.1875 168.480469 266.703125 167.828125 265.582031 165.898438 C 264.460938 163.957031 265.128906 161.46875 267.070312 160.339844 C 267.710938 159.976562 268.410156 159.804688 269.101562 159.804688 C 270.503906 159.804688 271.871094 160.527344 272.625 161.828125 C 273.160156 162.769531 273.316406 163.867188 273.03125 164.914062 Z M 273.023438 164.914062 " fill-opacity="1" fill-rule="nonzero"/></g><g clip-path="url(#45241e6747)"><path fill="#ffffff" d="M 167.269531 134.140625 C 173.988281 134.140625 179.453125 128.671875 179.453125 121.957031 C 179.453125 118.941406 178.308594 116.214844 176.488281 114.085938 L 202.011719 69.695312 L 225.28125 69.695312 C 226.960938 74.414062 231.429688 77.820312 236.714844 77.820312 C 243.433594 77.820312 248.898438 72.351562 248.898438 65.636719 C 248.898438 58.917969 243.433594 53.453125 236.714844 53.453125 C 231.429688 53.453125 226.960938 56.855469 225.28125 61.574219 L 197.316406 61.574219 L 169.472656 109.992188 C 168.757812 109.863281 168.019531 109.773438 167.261719 109.773438 C 161.984375 109.773438 157.523438 113.167969 155.835938 117.871094 L 122.152344 117.871094 L 149.953125 69.695312 L 160.546875 69.695312 C 161.519531 72.425781 163.273438 74.773438 165.808594 76.226562 C 167.675781 77.316406 169.765625 77.867188 171.875 77.867188 C 172.933594 77.867188 174.003906 77.722656 175.050781 77.445312 C 178.203125 76.601562 180.828125 74.570312 182.453125 71.75 C 185.796875 65.929688 183.792969 58.472656 177.976562 55.125 C 175.15625 53.492188 171.867188 53.0625 168.734375 53.90625 C 165.582031 54.75 162.957031 56.78125 161.34375 59.59375 C 160.96875 60.226562 160.683594 60.902344 160.441406 61.574219 L 145.261719 61.574219 L 108.085938 125.992188 L 155.835938 125.992188 C 157.507812 130.71875 161.984375 134.140625 167.28125 134.140625 Z M 236.714844 61.574219 C 238.949219 61.574219 240.777344 63.402344 240.777344 65.636719 C 240.777344 67.871094 238.949219 69.695312 236.714844 69.695312 C 234.484375 69.695312 232.65625 67.871094 232.65625 65.636719 C 232.65625 63.402344 234.484375 61.574219 236.714844 61.574219 Z M 168.375 63.644531 C 168.910156 62.710938 169.789062 62.039062 170.835938 61.753906 C 171.1875 61.664062 171.542969 61.613281 171.902344 61.613281 C 172.597656 61.613281 173.289062 61.792969 173.914062 62.152344 C 174.847656 62.695312 175.523438 63.574219 175.800781 64.621094 C 176.085938 65.667969 175.9375 66.765625 175.394531 67.707031 C 174.859375 68.640625 173.980469 69.316406 172.933594 69.597656 C 171.875 69.867188 170.789062 69.738281 169.847656 69.183594 C 168.910156 68.648438 168.238281 67.773438 167.953125 66.722656 C 167.675781 65.675781 167.816406 64.578125 168.367188 63.636719 Z M 167.269531 117.894531 C 169.503906 117.894531 171.332031 119.722656 171.332031 121.957031 C 171.332031 124.1875 169.503906 126.015625 167.269531 126.015625 C 165.039062 126.015625 163.210938 124.1875 163.210938 121.957031 C 163.210938 119.722656 165.039062 117.894531 167.269531 117.894531 Z M 167.269531 117.894531 " fill-opacity="1" fill-rule="nonzero"/></g><path fill="#ffffff" d="M 198.703125 174.808594 C 198.703125 168.089844 193.238281 162.625 186.519531 162.625 C 181.234375 162.625 176.765625 166.027344 175.085938 170.746094 L 123.875 170.820312 L 112.25 150.707031 C 115.5 146.890625 116.222656 141.320312 113.574219 136.738281 C 110.230469 130.929688 102.765625 128.941406 96.941406 132.269531 C 91.125 135.632812 89.128906 143.097656 92.480469 148.921875 C 94.730469 152.820312 98.832031 155.011719 103.058594 155.011719 C 103.78125 155.011719 104.496094 154.867188 105.210938 154.738281 L 119.203125 178.949219 L 175.09375 178.875 C 176.773438 183.59375 181.242188 187 186.527344 187 C 187.292969 187 188.03125 186.910156 188.761719 186.769531 L 205.574219 215.988281 L 149.953125 215.988281 L 144.675781 206.867188 C 146.511719 204.730469 147.664062 201.984375 147.664062 198.945312 C 147.664062 192.238281 142.183594 186.777344 135.464844 186.777344 C 128.746094 186.796875 123.289062 192.261719 123.296875 198.980469 C 123.296875 202.226562 124.566406 205.289062 126.863281 207.589844 C 129.160156 209.886719 132.214844 211.144531 135.464844 211.144531 L 135.488281 211.144531 C 136.226562 211.144531 136.933594 211.054688 137.640625 210.925781 L 145.277344 224.109375 L 219.609375 224.109375 L 195.765625 182.660156 C 197.574219 180.53125 198.703125 177.8125 198.703125 174.816406 Z M 99.507812 144.867188 C 98.386719 142.925781 99.050781 140.433594 100.992188 139.3125 C 102.902344 138.167969 105.421875 138.851562 106.550781 140.800781 C 107.671875 142.730469 107.003906 145.226562 105.054688 146.355469 C 103.128906 147.460938 100.621094 146.800781 99.507812 144.867188 Z M 135.472656 203.015625 C 134.390625 203.015625 133.367188 202.59375 132.605469 201.828125 C 131.832031 201.058594 131.417969 200.042969 131.417969 198.953125 C 131.417969 196.710938 133.238281 194.886719 135.472656 194.886719 C 137.707031 194.886719 139.535156 196.710938 139.542969 198.9375 C 139.542969 201.179688 137.722656 203.007812 135.480469 203.007812 Z M 182.460938 174.808594 C 182.460938 172.574219 184.289062 170.746094 186.519531 170.746094 C 188.753906 170.746094 190.582031 172.574219 190.582031 174.808594 C 190.582031 177.039062 188.753906 178.867188 186.519531 178.867188 C 184.289062 178.867188 182.460938 177.039062 182.460938 174.808594 Z M 182.460938 174.808594 " fill-opacity="1" fill-rule="nonzero"/></svg>