<svg xmlns="http://www.w3.org/2000/svg" xmlns:xlink="http://www.w3.org/1999/xlink" width="500" zoomAndPan="magnify" viewBox="0 0 375 374.999991" height="500" preserveAspectRatio="xMidYMid meet" version="1.0"><defs><g/><clipPath id="8eef644a13"><path d="M 214 70 L 301.113281 70 L 301.113281 249 L 214 249 Z M 214 70 " clip-rule="nonzero"/></clipPath><clipPath id="cfe56c71ba"><path d="M 95 41.578125 L 259 41.578125 L 259 135 L 95 135 Z M 95 41.578125 " clip-rule="nonzero"/></clipPath></defs><g fill="#000000" fill-opacity="1"><g transform="translate(25.579952, 301.723545)"><g><path d="M 37.796875 0 L 29.5 0 L 12.515625 -22.75 L 12.515625 0 L 3.6875 0 L 3.6875 -36.953125 L 11.984375 -36.953125 L 29.03125 -14.140625 L 29.03125 -36.953125 L 37.796875 -36.953125 Z M 37.796875 0 "/></g></g></g><g fill="#000000" fill-opacity="1"><g transform="translate(68.121804, 301.723545)"><g><path d="M 32.625 -29.5625 L 13.09375 -29.5625 L 13.09375 -22.21875 L 30.71875 -22.21875 L 30.71875 -14.828125 L 13.09375 -14.828125 L 13.09375 -7.390625 L 33.203125 -7.390625 L 33.203125 0 L 3.6875 0 L 3.6875 -36.953125 L 32.625 -36.953125 Z M 32.625 -29.5625 "/></g></g></g><g fill="#000000" fill-opacity="1"><g transform="translate(104.752153, 301.723545)"><g><path d="M 25.125 -19.3125 L 38.375 0 L 27.125 0 L 19.15625 -11.765625 L 11.1875 0 L 0.265625 0 L 13.453125 -18.890625 L 1.109375 -36.953125 L 12.03125 -36.953125 L 19.15625 -26.171875 L 26.28125 -36.953125 L 37.3125 -36.953125 Z M 25.125 -19.3125 "/></g></g></g><g fill="#000000" fill-opacity="1"><g transform="translate(144.549381, 301.723545)"><g><path d="M 31.9375 -29.40625 L 20.796875 -29.40625 L 20.796875 0 L 11.40625 0 L 11.40625 -29.40625 L 0.375 -29.40625 L 0.375 -37 L 31.9375 -37 Z M 31.9375 -29.40625 "/></g></g></g><g fill="#000000" fill-opacity="1"><g transform="translate(177.854512, 301.723545)"><g/></g></g><g fill="#000000" fill-opacity="1"><g transform="translate(191.155567, 301.723545)"><g><path d="M 21 -37.265625 C 23.75 -37.265625 26.453125 -36.703125 29.109375 -35.578125 C 31.765625 -34.453125 34.023438 -32.9375 35.890625 -31.03125 L 30.453125 -24.59375 C 29.253906 -26.070312 27.816406 -27.242188 26.140625 -28.109375 C 24.472656 -28.972656 22.816406 -29.40625 21.171875 -29.40625 C 18.242188 -29.40625 15.796875 -28.375 13.828125 -26.3125 C 11.859375 -24.25 10.875 -21.707031 10.875 -18.6875 C 10.875 -15.59375 11.859375 -13.003906 13.828125 -10.921875 C 15.796875 -8.847656 18.242188 -7.8125 21.171875 -7.8125 C 22.710938 -7.8125 24.316406 -8.195312 25.984375 -8.96875 C 27.660156 -9.75 29.148438 -10.804688 30.453125 -12.140625 L 35.9375 -6.328125 C 33.9375 -4.285156 31.570312 -2.648438 28.84375 -1.421875 C 26.113281 -0.191406 23.394531 0.421875 20.6875 0.421875 C 15.125 0.421875 10.492188 -1.390625 6.796875 -5.015625 C 3.109375 -8.640625 1.265625 -13.160156 1.265625 -18.578125 C 1.265625 -23.890625 3.144531 -28.332031 6.90625 -31.90625 C 10.675781 -35.476562 15.375 -37.265625 21 -37.265625 Z M 21 -37.265625 "/></g></g></g><g fill="#000000" fill-opacity="1"><g transform="translate(228.735983, 301.723545)"><g><path d="M 21.21875 -37.265625 C 26.957031 -37.265625 31.722656 -35.476562 35.515625 -31.90625 C 39.316406 -28.332031 41.21875 -23.875 41.21875 -18.53125 C 41.21875 -13.144531 39.304688 -8.640625 35.484375 -5.015625 C 31.671875 -1.390625 26.914062 0.421875 21.21875 0.421875 C 15.519531 0.421875 10.769531 -1.378906 6.96875 -4.984375 C 3.164062 -8.585938 1.265625 -13.101562 1.265625 -18.53125 C 1.265625 -23.914062 3.164062 -28.382812 6.96875 -31.9375 C 10.769531 -35.488281 15.519531 -37.265625 21.21875 -37.265625 Z M 21.328125 -29.40625 C 18.441406 -29.40625 15.976562 -28.359375 13.9375 -26.265625 C 11.894531 -24.171875 10.875 -21.570312 10.875 -18.46875 C 10.875 -15.375 11.898438 -12.757812 13.953125 -10.625 C 16.015625 -8.5 18.46875 -7.4375 21.3125 -7.4375 C 24.164062 -7.4375 26.585938 -8.5 28.578125 -10.625 C 30.566406 -12.757812 31.5625 -15.375 31.5625 -18.46875 C 31.5625 -21.570312 30.566406 -24.171875 28.578125 -26.265625 C 26.585938 -28.359375 24.171875 -29.40625 21.328125 -29.40625 Z M 21.328125 -29.40625 "/></g></g></g><g fill="#000000" fill-opacity="1"><g transform="translate(272.28068, 301.723545)"><g><path d="M 3.6875 -36.953125 L 19.578125 -36.953125 C 25.390625 -36.953125 30.113281 -35.242188 33.75 -31.828125 C 37.394531 -28.410156 39.21875 -23.957031 39.21875 -18.46875 C 39.21875 -13.019531 37.367188 -8.578125 33.671875 -5.140625 C 29.972656 -1.710938 25.15625 0 19.21875 0 L 3.6875 0 Z M 13.09375 -29.453125 L 13.09375 -7.5 L 19.796875 -7.5 C 22.679688 -7.5 25.046875 -8.507812 26.890625 -10.53125 C 28.734375 -12.550781 29.65625 -15.179688 29.65625 -18.421875 C 29.65625 -21.660156 28.6875 -24.304688 26.75 -26.359375 C 24.820312 -28.421875 22.363281 -29.453125 19.375 -29.453125 Z M 13.09375 -29.453125 "/></g></g></g><g fill="#000000" fill-opacity="1"><g transform="translate(313.819686, 301.723545)"><g><path d="M 32.625 -29.5625 L 13.09375 -29.5625 L 13.09375 -22.21875 L 30.71875 -22.21875 L 30.71875 -14.828125 L 13.09375 -14.828125 L 13.09375 -7.390625 L 33.203125 -7.390625 L 33.203125 0 L 3.6875 0 L 3.6875 -36.953125 L 32.625 -36.953125 Z M 32.625 -29.5625 "/></g></g></g><g clip-path="url(#8eef644a13)"><path fill="#000000" d="M 292.5625 160.1875 L 301.390625 144.945312 L 258.292969 70.46875 L 230.746094 118.328125 C 229.902344 118.167969 229.039062 118.066406 228.15625 118.066406 C 220.386719 118.066406 214.066406 124.386719 214.066406 132.152344 C 214.066406 139.917969 220.386719 146.238281 228.15625 146.238281 C 229.039062 146.238281 229.902344 146.136719 230.746094 145.976562 L 260.386719 197.160156 L 246.945312 220.421875 C 241.253906 219.378906 235.273438 221.90625 232.210938 227.203125 C 228.34375 233.925781 230.652344 242.558594 237.375 246.4375 C 239.582031 247.722656 242.007812 248.324219 244.390625 248.324219 C 249.277344 248.324219 254.007812 245.789062 256.621094 241.28125 C 259.679688 235.984375 258.855469 229.53125 255.089844 225.117188 L 271.25 197.167969 L 238.851562 141.234375 C 240.9375 138.773438 242.25 135.636719 242.25 132.160156 C 242.25 128.6875 240.945312 125.550781 238.851562 123.097656 L 258.320312 89.261719 L 290.542969 144.953125 L 284.417969 155.519531 C 281.226562 154.925781 277.835938 155.359375 274.820312 157.113281 C 268.085938 161.003906 265.785156 169.644531 269.675781 176.367188 C 272.285156 180.867188 277.027344 183.390625 281.902344 183.390625 C 284.296875 183.390625 286.71875 182.792969 288.925781 181.503906 C 295.652344 177.617188 297.953125 168.984375 294.0625 162.261719 C 293.632812 161.511719 293.113281 160.832031 292.570312 160.195312 Z M 248.488281 236.585938 C 247.179688 238.820312 244.289062 239.570312 242.0625 238.3125 C 239.828125 237.015625 239.058594 234.132812 240.335938 231.890625 C 241.207031 230.386719 242.796875 229.542969 244.421875 229.542969 C 245.21875 229.542969 246.027344 229.738281 246.757812 230.160156 C 249.003906 231.46875 249.773438 234.332031 248.488281 236.585938 Z M 223.457031 132.160156 C 223.457031 129.578125 225.570312 127.464844 228.15625 127.464844 C 230.738281 127.464844 232.851562 129.578125 232.851562 132.160156 C 232.851562 134.746094 230.738281 136.859375 228.15625 136.859375 C 225.570312 136.859375 223.457031 134.746094 223.457031 132.160156 Z M 286.390625 170.515625 C 286.070312 171.726562 285.300781 172.734375 284.222656 173.371094 C 281.957031 174.640625 279.085938 173.886719 277.789062 171.652344 C 276.492188 169.410156 277.261719 166.535156 279.507812 165.230469 C 280.25 164.804688 281.054688 164.609375 281.855469 164.609375 C 283.480469 164.609375 285.058594 165.445312 285.929688 166.949219 C 286.550781 168.039062 286.730469 169.304688 286.398438 170.515625 Z M 286.390625 170.515625 " fill-opacity="1" fill-rule="nonzero"/></g><g clip-path="url(#cfe56c71ba)"><path fill="#000000" d="M 164.113281 134.933594 C 171.878906 134.933594 178.199219 128.613281 178.199219 120.84375 C 178.199219 117.359375 176.878906 114.207031 174.773438 111.746094 L 204.28125 60.421875 L 231.1875 60.421875 C 233.132812 65.875 238.296875 69.8125 244.410156 69.8125 C 252.175781 69.8125 258.5 63.492188 258.5 55.726562 C 258.5 47.957031 252.175781 41.636719 244.410156 41.636719 C 238.296875 41.636719 233.132812 45.574219 231.1875 51.027344 L 198.851562 51.027344 L 166.660156 107.011719 C 165.832031 106.859375 164.976562 106.757812 164.105469 106.757812 C 158 106.757812 152.84375 110.683594 150.890625 116.121094 L 111.945312 116.121094 L 144.089844 60.421875 L 156.335938 60.421875 C 157.464844 63.574219 159.492188 66.289062 162.421875 67.972656 C 164.582031 69.230469 166.996094 69.867188 169.4375 69.867188 C 170.660156 69.867188 171.898438 69.699219 173.109375 69.378906 C 176.753906 68.402344 179.789062 66.054688 181.667969 62.796875 C 185.535156 56.0625 183.214844 47.441406 176.492188 43.570312 C 173.234375 41.683594 169.429688 41.1875 165.804688 42.164062 C 162.160156 43.140625 159.128906 45.488281 157.257812 48.738281 C 156.828125 49.46875 156.496094 50.25 156.214844 51.027344 L 138.664062 51.027344 L 95.679688 125.511719 L 150.890625 125.511719 C 152.824219 130.976562 158 134.933594 164.125 134.933594 Z M 244.410156 51.027344 C 246.992188 51.027344 249.105469 53.140625 249.105469 55.726562 C 249.105469 58.308594 246.992188 60.421875 244.410156 60.421875 C 241.828125 60.421875 239.714844 58.308594 239.714844 55.726562 C 239.714844 53.140625 241.828125 51.027344 244.410156 51.027344 Z M 165.390625 53.421875 C 166.011719 52.34375 167.023438 51.5625 168.238281 51.234375 C 168.640625 51.132812 169.054688 51.074219 169.46875 51.074219 C 170.273438 51.074219 171.074219 51.28125 171.796875 51.695312 C 172.875 52.324219 173.65625 53.339844 173.976562 54.550781 C 174.304688 55.761719 174.132812 57.03125 173.503906 58.121094 C 172.886719 59.199219 171.871094 59.980469 170.660156 60.308594 C 169.4375 60.617188 168.179688 60.46875 167.089844 59.828125 C 166.011719 59.207031 165.230469 58.195312 164.902344 56.984375 C 164.582031 55.773438 164.742188 54.503906 165.382812 53.414062 Z M 164.113281 116.148438 C 166.695312 116.148438 168.808594 118.261719 168.808594 120.84375 C 168.808594 123.425781 166.695312 125.539062 164.113281 125.539062 C 161.53125 125.539062 159.417969 123.425781 159.417969 120.84375 C 159.417969 118.261719 161.53125 116.148438 164.113281 116.148438 Z M 164.113281 116.148438 " fill-opacity="1" fill-rule="nonzero"/></g><path fill="#000000" d="M 200.457031 181.957031 C 200.457031 174.1875 194.136719 167.867188 186.371094 167.867188 C 180.257812 167.867188 175.09375 171.804688 173.148438 177.257812 L 113.933594 177.34375 L 100.496094 154.089844 C 104.253906 149.675781 105.089844 143.234375 102.027344 137.9375 C 98.15625 131.222656 89.527344 128.921875 82.792969 132.773438 C 76.070312 136.660156 73.757812 145.292969 77.636719 152.023438 C 80.238281 156.53125 84.980469 159.066406 89.863281 159.066406 C 90.699219 159.066406 91.527344 158.898438 92.355469 158.75 L 108.535156 186.746094 L 173.15625 186.660156 C 175.101562 192.117188 180.265625 196.050781 186.382812 196.050781 C 187.265625 196.050781 188.117188 195.949219 188.964844 195.789062 L 208.402344 229.570312 L 144.089844 229.570312 L 137.988281 219.023438 C 140.109375 216.554688 141.441406 213.378906 141.441406 209.867188 C 141.441406 202.109375 135.105469 195.796875 127.335938 195.796875 C 119.570312 195.816406 113.257812 202.136719 113.269531 209.90625 C 113.269531 213.660156 114.734375 217.203125 117.390625 219.859375 C 120.050781 222.515625 123.582031 223.972656 127.335938 223.972656 L 127.363281 223.972656 C 128.21875 223.972656 129.035156 223.871094 129.855469 223.71875 L 138.683594 238.960938 L 224.632812 238.960938 L 197.058594 191.035156 C 199.152344 188.578125 200.457031 185.429688 200.457031 181.964844 Z M 85.761719 147.339844 C 84.464844 145.09375 85.234375 142.210938 87.480469 140.914062 C 89.6875 139.589844 92.597656 140.378906 93.902344 142.632812 C 95.199219 144.867188 94.429688 147.75 92.175781 149.058594 C 89.949219 150.335938 87.046875 149.574219 85.761719 147.339844 Z M 127.347656 214.570312 C 126.097656 214.570312 124.914062 214.082031 124.03125 213.199219 C 123.140625 212.308594 122.660156 211.132812 122.660156 209.875 C 122.660156 207.285156 124.765625 205.171875 127.347656 205.171875 C 129.929688 205.171875 132.042969 207.285156 132.050781 209.855469 C 132.050781 212.449219 129.949219 214.5625 127.355469 214.5625 Z M 181.675781 181.957031 C 181.675781 179.371094 183.789062 177.257812 186.371094 177.257812 C 188.953125 177.257812 191.066406 179.371094 191.066406 181.957031 C 191.066406 184.539062 188.953125 186.652344 186.371094 186.652344 C 183.789062 186.652344 181.675781 184.539062 181.675781 181.957031 Z M 181.675781 181.957031 " fill-opacity="1" fill-rule="nonzero"/></svg>