<svg xmlns="http://www.w3.org/2000/svg" xmlns:xlink="http://www.w3.org/1999/xlink" width="500" zoomAndPan="magnify" viewBox="0 0 375 374.999991" height="500" preserveAspectRatio="xMidYMid meet" version="1.0"><defs><g/><clipPath id="39a6d4efee"><path d="M 1 213 L 60 213 L 60 311.53125 L 1 311.53125 Z M 1 213 " clip-rule="nonzero"/></clipPath><clipPath id="22fb507b88"><path d="M 315 213 L 374 213 L 374 311.53125 L 315 311.53125 Z M 315 213 " clip-rule="nonzero"/></clipPath><clipPath id="f4b21e6aaa"><path d="M 22 92 L 353 92 L 353 311.53125 L 22 311.53125 Z M 22 92 " clip-rule="nonzero"/></clipPath></defs><g clip-path="url(#39a6d4efee)"><path fill="#000000" d="M 32.703125 253.042969 L 4.375 290.304688 C -0.03125 296.097656 1.097656 304.359375 6.894531 308.761719 C 9.277344 310.570312 12.082031 311.445312 14.859375 311.445312 C 18.839844 311.445312 22.773438 309.652344 25.367188 306.242188 L 56.582031 265.1875 C 58.445312 262.738281 59.390625 259.710938 59.253906 256.632812 L 58.648438 243.027344 L 30.953125 213.585938 Z M 32.703125 253.042969 " fill-opacity="1" fill-rule="nonzero"/></g><path fill="#000000" d="M 82.179688 85.441406 C 94.203125 81.949219 103.007812 75.871094 101.84375 71.867188 C 100.679688 67.863281 89.984375 67.445312 77.960938 70.9375 C 77.550781 71.058594 77.152344 71.1875 76.75 71.3125 C 71.449219 68.441406 65.0625 67.570312 58.816406 69.386719 C 46.234375 73.042969 38.996094 86.199219 42.65625 98.773438 C 46.3125 111.347656 59.480469 118.574219 72.0625 114.921875 C 83.609375 111.566406 90.644531 100.21875 88.902344 88.65625 C 86.816406 89.148438 84.589844 89.5625 82.257812 89.867188 C 70.066406 91.441406 59.742188 89.488281 58.863281 85.5 C 61.425781 88.554688 71.238281 88.621094 82.179688 85.441406 Z M 82.179688 85.441406 " fill-opacity="1" fill-rule="nonzero"/><g clip-path="url(#22fb507b88)"><path fill="#000000" d="M 342.238281 253.042969 L 343.992188 213.585938 L 316.292969 243.027344 L 315.6875 256.632812 C 315.550781 259.710938 316.496094 262.738281 318.359375 265.1875 L 349.574219 306.242188 C 352.167969 309.652344 356.101562 311.445312 360.082031 311.445312 C 362.859375 311.445312 365.664062 310.570312 368.046875 308.761719 C 373.84375 304.359375 374.972656 296.097656 370.566406 290.304688 Z M 342.238281 253.042969 " fill-opacity="1" fill-rule="nonzero"/></g><path fill="#000000" d="M 294.460938 86.5 C 292.15625 86.042969 289.960938 85.484375 287.910156 84.851562 C 285.40625 96.273438 291.675781 108.0625 302.972656 112.175781 C 315.285156 116.65625 328.902344 110.316406 333.386719 98.007812 C 337.871094 85.707031 331.523438 72.097656 319.210938 67.617188 C 313.097656 65.394531 306.667969 65.839844 301.191406 68.351562 C 300.796875 68.199219 300.40625 68.046875 300.003906 67.898438 C 288.238281 63.617188 277.542969 63.324219 276.113281 67.242188 C 274.683594 71.160156 283.066406 77.808594 294.832031 82.089844 C 305.539062 85.988281 315.335938 86.570312 318.09375 83.695312 C 316.953125 87.613281 306.523438 88.878906 294.460938 86.5 Z M 294.460938 86.5 " fill-opacity="1" fill-rule="nonzero"/><g clip-path="url(#f4b21e6aaa)"><path fill="#000000" d="M 272.304688 196.230469 C 268.109375 195.859375 264.539062 193.199219 262.984375 189.289062 C 260.730469 183.617188 263.515625 177.171875 269.191406 174.921875 L 279.117188 170.984375 L 277.585938 159.402344 L 297.65625 160.90625 C 297.867188 160.921875 298.078125 160.929688 298.289062 160.929688 C 300.445312 160.929688 302.511719 160.097656 304.070312 158.625 L 314.402344 136.234375 C 316.355469 132 320.792969 129.433594 325.4375 129.84375 C 326.703125 129.957031 327.933594 130.285156 329.09375 130.820312 C 334.636719 133.375 337.070312 139.960938 334.511719 145.5 L 320.933594 174.929688 C 319.738281 177.519531 317.617188 179.527344 314.960938 180.578125 L 313.640625 181.101562 C 314.046875 187.015625 314.023438 192.917969 313.269531 198.527344 C 313.144531 200.613281 313.128906 202.417969 313.214844 203.992188 L 285.507812 233.445312 C 283.820312 235.234375 282.671875 237.460938 282.1875 239.867188 L 270.941406 295.71875 C 269.503906 302.847656 274.125 309.792969 281.261719 311.230469 C 282.140625 311.40625 283.011719 311.492188 283.875 311.492188 C 290.023438 311.492188 295.523438 307.167969 296.785156 300.914062 L 307.292969 248.75 L 344.699219 208.988281 C 345.167969 208.488281 345.578125 207.957031 345.953125 207.40625 C 348.203125 204.691406 349.972656 200.953125 350.972656 195.804688 C 353.699219 172.394531 352.15625 158.558594 344.980469 137.300781 C 339.671875 121.871094 326.621094 116.984375 317.621094 119.226562 C 315.355469 119.792969 313.414062 121.007812 311.820312 122.675781 C 311.351562 123.050781 310.917969 123.476562 310.527344 123.957031 L 304.726562 131.128906 L 294.507812 143.761719 L 275.324219 142.324219 L 268.742188 92.640625 L 190.386719 103.003906 L 196.976562 152.742188 L 192.871094 149.425781 L 190.105469 153.652344 L 186.558594 150.257812 L 183.578125 154.515625 L 179.664062 151.171875 L 177.820312 155.277344 L 171.234375 105.535156 L 92.878906 115.898438 L 98.410156 157.675781 L 81.890625 154.191406 L 65.171875 125.066406 C 64.632812 124.121094 63.933594 123.332031 63.132812 122.691406 C 61.539062 121.015625 59.589844 119.792969 57.324219 119.226562 C 48.320312 116.984375 35.269531 121.871094 29.960938 137.300781 C 24.265625 154.164062 22.128906 166.375 22.847656 182.382812 C 23.035156 186.550781 23.402344 190.96875 23.96875 195.804688 C 24.96875 200.953125 26.742188 204.691406 28.988281 207.410156 C 29.363281 207.957031 29.773438 208.488281 30.242188 208.988281 L 67.648438 248.75 L 78.15625 300.914062 C 79.417969 307.167969 84.917969 311.492188 91.066406 311.488281 C 91.925781 311.488281 92.800781 311.40625 93.679688 311.230469 C 100.816406 309.792969 105.4375 302.847656 104 295.714844 L 92.753906 239.867188 C 92.269531 237.460938 91.121094 235.234375 89.4375 233.445312 L 61.726562 203.992188 C 61.8125 202.417969 61.796875 200.613281 61.671875 198.527344 C 61.179688 194.867188 61.011719 191.082031 61.054688 187.253906 C 61.0625 186.738281 61.074219 186.222656 61.089844 185.707031 L 57.15625 183.730469 C 54.605469 182.449219 52.671875 180.261719 51.707031 177.574219 L 40.78125 147.066406 C 39.785156 144.28125 39.933594 141.277344 41.199219 138.605469 C 42.460938 135.933594 44.691406 133.914062 47.476562 132.917969 C 48.683594 132.488281 49.9375 132.269531 51.207031 132.269531 C 55.871094 132.269531 60.0625 135.21875 61.632812 139.609375 L 71.066406 165.953125 L 81.988281 171.445312 L 100.757812 175.402344 L 101.535156 181.273438 L 103.25 182.136719 C 108.703125 184.875 110.90625 191.542969 108.164062 196.992188 C 107.238281 198.828125 105.855469 200.316406 104.199219 201.367188 L 108.78125 235.964844 L 284.644531 212.710938 L 282.113281 193.605469 L 277.359375 195.492188 C 275.757812 196.125 274.011719 196.382812 272.304688 196.230469 Z M 235.792969 209.046875 L 234.695312 200.765625 L 242.984375 199.671875 L 244.078125 207.953125 Z M 249.085938 207.289062 L 247.988281 199.007812 L 256.277344 197.914062 L 257.371094 206.195312 Z M 262.378906 205.53125 L 261.28125 197.25 L 269.570312 196.15625 L 270.667969 204.4375 Z M 262.378906 205.53125 " fill-opacity="1" fill-rule="nonzero"/></g><path fill="#000000" d="M 313.992188 178.128906 C 316.003906 177.332031 317.632812 175.789062 318.539062 173.824219 L 332.117188 144.398438 C 334.070312 140.171875 332.222656 135.164062 327.992188 133.214844 C 323.761719 131.265625 318.75 133.113281 316.796875 137.339844 L 304.628906 163.703125 L 270.164062 177.371094 C 265.832031 179.089844 263.714844 183.988281 265.433594 188.316406 C 266.652344 191.378906 269.460938 193.332031 272.535156 193.605469 C 273.808594 193.71875 275.121094 193.542969 276.386719 193.042969 Z M 313.992188 178.128906 " fill-opacity="1" fill-rule="nonzero"/><path fill="#000000" d="M 102.0625 184.488281 L 68.941406 167.832031 L 59.152344 140.496094 C 57.582031 136.113281 52.75 133.832031 48.367188 135.402344 C 43.980469 136.96875 41.695312 141.792969 43.265625 146.179688 L 54.191406 176.6875 C 54.921875 178.726562 56.40625 180.40625 58.34375 181.378906 L 94.480469 199.546875 C 95.695312 200.160156 96.992188 200.449219 98.265625 200.449219 C 101.351562 200.449219 104.324219 198.75 105.808594 195.808594 C 107.902344 191.648438 106.226562 186.582031 102.0625 184.488281 Z M 102.0625 184.488281 " fill-opacity="1" fill-rule="nonzero"/><g fill="#000000" fill-opacity="1"><g transform="translate(185.36718, 193.124987)"><g><path d="M 1.1875 -0.828125 C 1.1875 -1.179688 1.265625 -1.445312 1.421875 -1.625 C 1.585938 -1.800781 1.816406 -1.890625 2.109375 -1.890625 C 2.410156 -1.890625 2.644531 -1.800781 2.8125 -1.625 C 2.988281 -1.445312 3.078125 -1.179688 3.078125 -0.828125 C 3.078125 -0.492188 2.988281 -0.234375 2.8125 -0.046875 C 2.644531 0.140625 2.410156 0.234375 2.109375 0.234375 C 1.847656 0.234375 1.628906 0.148438 1.453125 -0.015625 C 1.273438 -0.179688 1.1875 -0.453125 1.1875 -0.828125 Z M 1.1875 -0.828125 "/></g></g></g></svg>