<svg xmlns="http://www.w3.org/2000/svg" xmlns:xlink="http://www.w3.org/1999/xlink" width="500" zoomAndPan="magnify" viewBox="0 0 375 374.999991" height="500" preserveAspectRatio="xMidYMid meet" version="1.0"><defs><g/><clipPath id="83e8b86e8c"><path d="M 0 40.3125 L 95 40.3125 L 95 136 L 0 136 Z M 0 40.3125 " clip-rule="nonzero"/></clipPath><clipPath id="3ad00364e3"><path d="M 280 40.3125 L 375 40.3125 L 375 136 L 280 136 Z M 280 40.3125 " clip-rule="nonzero"/></clipPath><clipPath id="5df6bd5f8d"><path d="M 0 240 L 95 240 L 95 335.0625 L 0 335.0625 Z M 0 240 " clip-rule="nonzero"/></clipPath><clipPath id="eb3312a122"><path d="M 280 240 L 375 240 L 375 335.0625 L 280 335.0625 Z M 280 240 " clip-rule="nonzero"/></clipPath></defs><path fill="#000000" d="M 187.5 115.671875 C 146.6875 115.671875 113.480469 148.917969 113.480469 189.78125 C 113.480469 230.648438 146.6875 263.894531 187.5 263.894531 C 228.3125 263.894531 261.519531 230.648438 261.519531 189.78125 C 261.519531 148.917969 228.3125 115.671875 187.5 115.671875 Z M 187.5 240.28125 C 159.691406 240.28125 137.0625 217.628906 137.0625 189.78125 C 137.0625 161.9375 159.691406 139.28125 187.5 139.28125 C 215.308594 139.28125 237.933594 161.9375 237.933594 189.78125 C 237.941406 195.75 236.917969 201.53125 234.867188 207.132812 C 233.300781 205.542969 231.460938 204.394531 229.34375 203.691406 C 230.839844 199.175781 231.585938 194.539062 231.582031 189.78125 C 231.582031 165.445312 211.804688 145.640625 187.496094 145.640625 C 163.1875 145.640625 143.410156 165.445312 143.410156 189.78125 C 143.410156 214.121094 163.1875 233.925781 187.496094 233.925781 C 189.847656 233.929688 192.183594 233.742188 194.503906 233.371094 C 196.824219 232.996094 199.097656 232.441406 201.332031 231.703125 C 203.5625 230.960938 205.71875 230.050781 207.804688 228.960938 C 209.890625 227.875 211.875 226.628906 213.757812 225.222656 C 215.082031 227.015625 216.738281 228.414062 218.726562 229.417969 C 216.523438 231.164062 214.1875 232.71875 211.71875 234.074219 C 209.253906 235.429688 206.691406 236.570312 204.03125 237.496094 C 201.375 238.421875 198.660156 239.117188 195.882812 239.582031 C 193.109375 240.050781 190.3125 240.28125 187.5 240.277344 Z M 187.5 240.28125 " fill-opacity="1" fill-rule="nonzero"/><path fill="#f2f2f2" d="M 238.902344 216.941406 C 238.902344 217.476562 238.871094 218.011719 238.8125 218.542969 C 238.75 219.074219 238.660156 219.601562 238.539062 220.125 C 238.421875 220.644531 238.269531 221.160156 238.089844 221.664062 C 237.910156 222.167969 237.703125 222.660156 237.46875 223.140625 C 237.230469 223.625 236.96875 224.089844 236.679688 224.539062 C 236.390625 224.988281 236.074219 225.421875 235.738281 225.835938 C 235.398438 226.25 235.035156 226.644531 234.652344 227.019531 C 234.269531 227.390625 233.863281 227.742188 233.441406 228.066406 C 233.015625 228.394531 232.574219 228.695312 232.113281 228.96875 C 231.65625 229.246094 231.183594 229.496094 230.695312 229.714844 C 230.207031 229.9375 229.710938 230.128906 229.199219 230.292969 C 228.691406 230.457031 228.175781 230.589844 227.648438 230.695312 C 227.125 230.800781 226.597656 230.875 226.0625 230.917969 C 225.53125 230.960938 224.996094 230.976562 224.460938 230.957031 C 223.925781 230.941406 223.394531 230.890625 222.863281 230.8125 C 222.335938 230.734375 221.8125 230.625 221.296875 230.484375 C 220.78125 230.347656 220.273438 230.179688 219.773438 229.980469 C 219.277344 229.785156 218.792969 229.558594 218.320312 229.304688 C 217.851562 229.054688 217.394531 228.773438 216.953125 228.46875 C 216.515625 228.164062 216.09375 227.832031 215.691406 227.480469 C 215.289062 227.125 214.910156 226.75 214.550781 226.351562 C 214.191406 225.957031 213.859375 225.539062 213.546875 225.101562 C 213.238281 224.667969 212.953125 224.214844 212.691406 223.746094 C 212.433594 223.277344 212.203125 222.792969 212 222.300781 C 211.792969 221.804688 211.621094 221.296875 211.472656 220.785156 C 211.328125 220.269531 211.210938 219.746094 211.125 219.21875 C 211.039062 218.6875 210.984375 218.15625 210.960938 217.621094 C 210.933594 217.085938 210.941406 216.550781 210.976562 216.015625 C 211.011719 215.480469 211.082031 214.953125 211.175781 214.425781 C 211.273438 213.898438 211.402344 213.378906 211.558594 212.867188 C 211.714844 212.355469 211.902344 211.851562 212.117188 211.363281 C 212.328125 210.871094 212.570312 210.394531 212.839844 209.929688 C 213.109375 209.46875 213.40625 209.023438 213.722656 208.59375 C 214.042969 208.164062 214.386719 207.753906 214.753906 207.363281 C 215.121094 206.976562 215.511719 206.605469 215.921875 206.261719 C 216.328125 205.917969 216.757812 205.597656 217.203125 205.300781 C 217.648438 205.003906 218.109375 204.734375 218.585938 204.492188 C 219.066406 204.25 219.554688 204.035156 220.054688 203.847656 C 220.558594 203.664062 221.066406 203.503906 221.585938 203.378906 C 222.105469 203.25 222.632812 203.152344 223.164062 203.085938 C 223.695312 203.015625 224.226562 202.980469 224.761719 202.972656 C 225.296875 202.96875 225.828125 202.992188 226.363281 203.046875 C 226.894531 203.101562 227.421875 203.1875 227.945312 203.304688 C 228.464844 203.421875 228.980469 203.566406 229.484375 203.738281 C 229.992188 203.914062 230.484375 204.117188 230.96875 204.351562 C 231.449219 204.582031 231.917969 204.839844 232.371094 205.125 C 232.824219 205.410156 233.257812 205.722656 233.675781 206.058594 C 234.09375 206.394531 234.488281 206.75 234.867188 207.132812 C 236.15625 208.4375 237.152344 209.941406 237.847656 211.636719 C 238.546875 213.335938 238.898438 215.105469 238.902344 216.941406 Z M 238.902344 216.941406 " fill-opacity="1" fill-rule="nonzero"/><path fill="#f2f2f2" d="M 208 189.777344 C 208 190.449219 207.96875 191.121094 207.902344 191.789062 C 207.835938 192.457031 207.738281 193.121094 207.605469 193.78125 C 207.476562 194.441406 207.3125 195.09375 207.117188 195.734375 C 206.921875 196.378906 206.695312 197.011719 206.441406 197.632812 C 206.183594 198.253906 205.898438 198.859375 205.582031 199.453125 C 205.261719 200.046875 204.917969 200.621094 204.546875 201.179688 C 204.171875 201.738281 203.773438 202.28125 203.347656 202.800781 C 202.921875 203.320312 202.472656 203.816406 201.996094 204.292969 C 201.519531 204.765625 201.023438 205.21875 200.503906 205.644531 C 199.988281 206.070312 199.449219 206.472656 198.890625 206.84375 C 198.332031 207.21875 197.757812 207.5625 197.164062 207.878906 C 196.570312 208.195312 195.964844 208.484375 195.34375 208.742188 C 194.726562 209 194.09375 209.226562 193.449219 209.421875 C 192.808594 209.613281 192.15625 209.777344 191.5 209.910156 C 190.839844 210.039062 190.175781 210.140625 189.507812 210.203125 C 188.839844 210.269531 188.171875 210.304688 187.5 210.304688 C 186.828125 210.304688 186.160156 210.269531 185.492188 210.203125 C 184.824219 210.140625 184.160156 210.039062 183.5 209.910156 C 182.84375 209.777344 182.191406 209.613281 181.550781 209.417969 C 180.90625 209.226562 180.273438 209 179.65625 208.742188 C 179.035156 208.484375 178.429688 208.195312 177.835938 207.878906 C 177.242188 207.5625 176.667969 207.21875 176.109375 206.84375 C 175.550781 206.472656 175.011719 206.070312 174.496094 205.644531 C 173.976562 205.21875 173.476562 204.765625 173.003906 204.292969 C 172.527344 203.816406 172.078125 203.320312 171.652344 202.800781 C 171.226562 202.28125 170.828125 201.738281 170.453125 201.179688 C 170.082031 200.621094 169.738281 200.046875 169.417969 199.453125 C 169.101562 198.859375 168.816406 198.253906 168.558594 197.632812 C 168.300781 197.011719 168.078125 196.378906 167.882812 195.734375 C 167.6875 195.09375 167.523438 194.441406 167.394531 193.78125 C 167.261719 193.121094 167.164062 192.457031 167.097656 191.789062 C 167.03125 191.121094 167 190.449219 167 189.777344 C 167 189.105469 167.03125 188.433594 167.097656 187.765625 C 167.164062 187.097656 167.261719 186.433594 167.394531 185.773438 C 167.523438 185.113281 167.6875 184.460938 167.882812 183.816406 C 168.078125 183.175781 168.300781 182.542969 168.558594 181.921875 C 168.816406 181.300781 169.101562 180.695312 169.417969 180.101562 C 169.738281 179.507812 170.082031 178.933594 170.453125 178.371094 C 170.828125 177.8125 171.226562 177.273438 171.652344 176.753906 C 172.078125 176.234375 172.527344 175.738281 173.003906 175.261719 C 173.476562 174.785156 173.976562 174.335938 174.496094 173.910156 C 175.011719 173.484375 175.550781 173.082031 176.109375 172.710938 C 176.667969 172.335938 177.242188 171.992188 177.835938 171.671875 C 178.429688 171.355469 179.035156 171.070312 179.65625 170.8125 C 180.273438 170.554688 180.90625 170.328125 181.550781 170.132812 C 182.191406 169.9375 182.84375 169.777344 183.5 169.644531 C 184.160156 169.511719 184.824219 169.414062 185.492188 169.347656 C 186.160156 169.28125 186.828125 169.25 187.5 169.25 C 188.171875 169.25 188.839844 169.28125 189.507812 169.347656 C 190.175781 169.414062 190.839844 169.511719 191.5 169.644531 C 192.15625 169.777344 192.808594 169.9375 193.449219 170.132812 C 194.09375 170.328125 194.726562 170.554688 195.34375 170.8125 C 195.964844 171.070312 196.570312 171.355469 197.164062 171.671875 C 197.757812 171.992188 198.332031 172.335938 198.890625 172.710938 C 199.449219 173.082031 199.988281 173.484375 200.503906 173.910156 C 201.023438 174.335938 201.519531 174.785156 201.996094 175.261719 C 202.472656 175.738281 202.921875 176.234375 203.347656 176.753906 C 203.773438 177.273438 204.171875 177.8125 204.546875 178.371094 C 204.917969 178.933594 205.261719 179.507812 205.582031 180.101562 C 205.898438 180.695312 206.183594 181.300781 206.441406 181.921875 C 206.695312 182.542969 206.921875 183.175781 207.117188 183.816406 C 207.3125 184.460938 207.476562 185.113281 207.605469 185.773438 C 207.738281 186.433594 207.835938 187.097656 207.902344 187.765625 C 207.96875 188.433594 208 189.105469 208 189.777344 Z M 208 189.777344 " fill-opacity="1" fill-rule="nonzero"/><path fill="#000000" d="M 369.539062 178.953125 L 344.3125 160.066406 L 331.609375 150.554688 L 323.734375 144.664062 C 305.746094 131.179688 286.1875 120.601562 265.066406 112.929688 C 264.304688 112.65625 263.546875 112.382812 262.785156 112.113281 C 261.320312 111.597656 259.847656 111.097656 258.375 110.613281 C 252.648438 108.734375 246.855469 107.085938 240.996094 105.667969 C 235.140625 104.25 229.234375 103.066406 223.285156 102.117188 C 217.332031 101.164062 211.355469 100.453125 205.347656 99.976562 C 199.339844 99.5 193.320312 99.265625 187.296875 99.265625 C 181.269531 99.269531 175.253906 99.507812 169.246094 99.988281 C 163.238281 100.46875 157.257812 101.1875 151.308594 102.140625 C 145.359375 103.09375 139.453125 104.28125 133.597656 105.707031 C 127.742188 107.128906 121.949219 108.78125 116.226562 110.664062 C 114.796875 111.132812 113.378906 111.617188 111.964844 112.113281 C 111.285156 112.351562 110.605469 112.597656 109.929688 112.84375 C 88.613281 120.554688 68.894531 131.222656 50.769531 144.847656 L 43.390625 150.382812 L 30.6875 159.921875 L 5.445312 178.878906 C 5.023438 179.195312 4.621094 179.53125 4.238281 179.894531 C 3.855469 180.257812 3.496094 180.644531 3.15625 181.046875 C 2.820312 181.453125 2.507812 181.875 2.21875 182.316406 C 1.929688 182.757812 1.667969 183.214844 1.433594 183.683594 C 1.195312 184.15625 0.988281 184.640625 0.808594 185.136719 C 0.628906 185.632812 0.480469 186.136719 0.359375 186.648438 C 0.238281 187.164062 0.144531 187.683594 0.0859375 188.207031 C 0.0234375 188.730469 -0.0078125 189.253906 -0.0078125 189.78125 C -0.0078125 190.308594 0.0234375 190.835938 0.0859375 191.359375 C 0.144531 191.882812 0.238281 192.402344 0.359375 192.914062 C 0.480469 193.429688 0.628906 193.933594 0.808594 194.429688 C 0.988281 194.925781 1.195312 195.410156 1.433594 195.878906 C 1.667969 196.351562 1.929688 196.808594 2.21875 197.25 C 2.507812 197.691406 2.820312 198.113281 3.15625 198.519531 C 3.496094 198.921875 3.855469 199.308594 4.238281 199.671875 C 4.621094 200.03125 5.023438 200.371094 5.445312 200.6875 L 30.6875 219.644531 L 43.390625 229.183594 L 50.847656 234.773438 C 68.953125 248.382812 88.648438 259.042969 109.933594 266.757812 C 110.585938 266.992188 111.230469 267.226562 111.886719 267.453125 C 113.359375 267.972656 114.832031 268.472656 116.3125 268.960938 C 122.035156 270.84375 127.824219 272.496094 133.679688 273.917969 C 139.535156 275.339844 145.433594 276.527344 151.382812 277.484375 C 157.332031 278.4375 163.308594 279.15625 169.3125 279.636719 C 175.320312 280.117188 181.332031 280.355469 187.359375 280.359375 C 193.382812 280.363281 199.398438 280.128906 205.402344 279.652344 C 211.410156 279.179688 217.386719 278.46875 223.335938 277.519531 C 229.285156 276.570312 235.1875 275.386719 241.042969 273.96875 C 246.898438 272.554688 252.6875 270.90625 258.414062 269.03125 C 259.960938 268.519531 261.503906 267.996094 263.042969 267.453125 C 263.722656 267.214844 264.402344 266.972656 265.078125 266.722656 C 286.1875 259.0625 305.730469 248.503906 323.710938 235.042969 L 331.609375 229.128906 L 344.3125 219.632812 L 369.535156 200.773438 C 369.957031 200.457031 370.359375 200.117188 370.742188 199.753906 C 371.125 199.390625 371.484375 199.007812 371.824219 198.601562 C 372.164062 198.199219 372.476562 197.773438 372.765625 197.332031 C 373.054688 196.890625 373.320312 196.433594 373.554688 195.964844 C 373.792969 195.492188 374 195.007812 374.179688 194.511719 C 374.359375 194.015625 374.511719 193.507812 374.632812 192.996094 C 374.753906 192.480469 374.84375 191.960938 374.90625 191.4375 C 374.96875 190.914062 374.996094 190.386719 374.996094 189.859375 C 374.996094 189.332031 374.96875 188.804688 374.90625 188.28125 C 374.84375 187.757812 374.753906 187.238281 374.632812 186.722656 C 374.511719 186.210938 374.359375 185.703125 374.179688 185.207031 C 374 184.710938 373.792969 184.226562 373.554688 183.753906 C 373.320312 183.285156 373.054688 182.828125 372.765625 182.386719 C 372.476562 181.945312 372.164062 181.519531 371.824219 181.117188 C 371.484375 180.710938 371.125 180.328125 370.742188 179.964844 C 370.359375 179.601562 369.957031 179.261719 369.535156 178.945312 Z M 361.933594 190.589844 L 344.3125 203.761719 L 331.609375 213.257812 L 316.105469 224.851562 C 307.476562 231.308594 298.417969 237.085938 288.921875 242.175781 C 279.425781 247.269531 269.601562 251.621094 259.453125 255.230469 C 249.300781 258.839844 238.9375 261.671875 228.363281 263.71875 C 217.789062 265.769531 207.117188 267.015625 196.355469 267.453125 C 190.429688 267.703125 184.5 267.703125 178.570312 267.453125 C 167.773438 267.011719 157.066406 265.761719 146.457031 263.703125 C 135.84375 261.640625 125.449219 258.792969 115.269531 255.160156 C 105.085938 251.527344 95.238281 247.148438 85.714844 242.027344 C 76.195312 236.902344 67.113281 231.09375 58.46875 224.597656 L 43.390625 213.277344 L 30.6875 203.738281 L 13.058594 190.503906 C 12.945312 190.417969 12.855469 190.3125 12.792969 190.1875 C 12.730469 190.058594 12.699219 189.925781 12.699219 189.78125 C 12.699219 189.640625 12.730469 189.507812 12.792969 189.378906 C 12.855469 189.253906 12.945312 189.144531 13.058594 189.0625 L 30.6875 175.824219 L 43.390625 166.289062 L 58.390625 155.03125 C 62.757812 151.746094 67.242188 148.636719 71.847656 145.695312 C 76.453125 142.757812 81.160156 139.996094 85.976562 137.417969 C 90.792969 134.835938 95.695312 132.445312 100.695312 130.242188 C 105.691406 128.035156 110.765625 126.023438 115.914062 124.207031 C 121.066406 122.390625 126.277344 120.773438 131.550781 119.355469 C 136.824219 117.933594 142.144531 116.71875 147.511719 115.707031 C 152.878906 114.695312 158.277344 113.886719 163.703125 113.289062 C 169.132812 112.6875 174.574219 112.296875 180.03125 112.113281 C 184.917969 111.945312 189.8125 111.945312 194.710938 112.113281 C 205.617188 112.480469 216.433594 113.671875 227.160156 115.691406 C 237.886719 117.710938 248.398438 120.53125 258.695312 124.15625 C 268.992188 127.78125 278.953125 132.164062 288.582031 137.308594 C 298.210938 142.457031 307.390625 148.300781 316.128906 154.851562 L 331.601562 166.433594 L 344.304688 175.949219 L 361.929688 189.140625 C 362.042969 189.222656 362.132812 189.328125 362.195312 189.457031 C 362.261719 189.585938 362.292969 189.71875 362.292969 189.863281 C 362.296875 190.003906 362.265625 190.140625 362.199219 190.269531 C 362.136719 190.394531 362.046875 190.503906 361.933594 190.589844 Z M 361.933594 190.589844 " fill-opacity="1" fill-rule="nonzero"/><g clip-path="url(#83e8b86e8c)"><path fill="#000000" d="M 15.277344 135.148438 L 0.09375 135.148438 L 0.09375 40.328125 L 94.792969 40.328125 L 94.792969 55.527344 L 15.277344 55.527344 Z M 15.277344 135.148438 " fill-opacity="1" fill-rule="nonzero"/></g><g clip-path="url(#3ad00364e3)"><path fill="#000000" d="M 374.90625 40.328125 L 374.90625 135.148438 L 359.722656 135.148438 L 359.722656 55.527344 L 280.207031 55.527344 L 280.207031 40.328125 Z M 374.90625 40.328125 " fill-opacity="1" fill-rule="nonzero"/></g><g clip-path="url(#5df6bd5f8d)"><path fill="#000000" d="M 15.277344 319.847656 L 94.792969 319.847656 L 94.792969 335.046875 L 0.09375 335.046875 L 0.09375 240.226562 L 15.277344 240.226562 Z M 15.277344 319.847656 " fill-opacity="1" fill-rule="nonzero"/></g><g clip-path="url(#eb3312a122)"><path fill="#000000" d="M 374.90625 240.226562 L 374.90625 335.046875 L 280.207031 335.046875 L 280.207031 319.847656 L 359.722656 319.847656 L 359.722656 240.226562 Z M 374.90625 240.226562 " fill-opacity="1" fill-rule="nonzero"/></g><g fill="#000000" fill-opacity="1"><g transform="translate(202.643591, 224.629058)"><g><path d="M 1.1875 -0.828125 C 1.1875 -1.179688 1.265625 -1.445312 1.421875 -1.625 C 1.585938 -1.800781 1.816406 -1.890625 2.109375 -1.890625 C 2.410156 -1.890625 2.644531 -1.800781 2.8125 -1.625 C 2.988281 -1.445312 3.078125 -1.179688 3.078125 -0.828125 C 3.078125 -0.492188 2.988281 -0.234375 2.8125 -0.046875 C 2.644531 0.140625 2.410156 0.234375 2.109375 0.234375 C 1.847656 0.234375 1.628906 0.148438 1.453125 -0.015625 C 1.273438 -0.179688 1.1875 -0.453125 1.1875 -0.828125 Z M 1.1875 -0.828125 "/></g></g></g></svg>